<svg width="89" height="91" viewBox="0 0 89 91" fill="none" xmlns="http://www.w3.org/2000/svg">
<g clip-path="url(#clip0_2303_1008)">
<path opacity="0.4" d="M-11.8456 168.617C34.4036 168.617 71.896 131.125 71.896 84.8754C71.896 38.6262 34.4036 1.13379 -11.8456 1.13379C-58.0948 1.13379 -95.5872 38.6262 -95.5872 84.8754C-95.5872 131.125 -58.0948 168.617 -11.8456 168.617Z" stroke="#FFFAFF" stroke-width="0.565822"/>
<path opacity="0.4" d="M-11.8456 184.719C34.4036 184.719 71.896 147.227 71.896 100.977C71.896 54.7282 34.4036 17.2358 -11.8456 17.2358C-58.0948 17.2358 -95.5872 54.7282 -95.5872 100.977C-95.5872 147.227 -58.0948 184.719 -11.8456 184.719Z" stroke="#FFFAFF" stroke-width="0.565822"/>
<path opacity="0.4" d="M-11.8456 200.429C34.4036 200.429 71.896 162.937 71.896 116.687C71.896 70.4382 34.4036 32.9458 -11.8456 32.9458C-58.0948 32.9458 -95.5872 70.4382 -95.5872 116.687C-95.5872 162.937 -58.0948 200.429 -11.8456 200.429Z" stroke="#FFFAFF" stroke-width="0.565822"/>
</g>
<defs>
<clipPath id="clip0_2303_1008">
<rect width="168.254" height="200" fill="white" transform="translate(-95.9395 0.78125)"/>
</clipPath>
</defs>
</svg>
