<svg width="24" height="25" viewBox="0 0 24 25" fill="none" xmlns="http://www.w3.org/2000/svg">
<g clip-path="url(#clip0_2316_555)">
<path d="M20.4504 21.2005H16.894V15.6311C16.894 14.3029 16.8702 12.5939 15.0442 12.5939C13.192 12.5939 12.9082 14.0403 12.9082 15.5353V21.2005H9.35293V9.7471H12.7675V11.3118H12.8147C13.5114 10.122 14.8052 9.4112 16.1831 9.46206C19.788 9.46206 20.4515 11.8334 20.4515 14.9167L20.4504 21.2005ZM5.33997 8.18117C4.19984 8.18117 3.27613 7.25747 3.27613 6.11733C3.27613 4.9772 4.19984 4.05349 5.33997 4.05349C6.48011 4.05349 7.40381 4.9772 7.40381 6.11733C7.40381 7.25747 6.48011 8.18117 5.33997 8.18117ZM7.11759 21.2005H3.55761V9.7471H7.11759V21.2005ZM22.2232 0.751344H1.77053C0.804248 0.7407 0.0118272 1.51538 0 2.48166V23.0183C0.0118272 23.9858 0.804248 24.7605 1.77053 24.7499H22.2232C23.192 24.7617 23.9879 23.9871 24.0009 23.0183V2.48048C23.9867 1.51183 23.1907 0.737152 22.2232 0.750161" fill="#FFFAFF"/>
</g>
<defs>
<clipPath id="clip0_2316_555">
<rect width="24" height="24" fill="white" transform="translate(0 0.75)"/>
</clipPath>
</defs>
</svg>
