<svg width="210" height="126" viewBox="0 0 210 126" fill="none" xmlns="http://www.w3.org/2000/svg">
<g clip-path="url(#clip0_2316_531)">
<path opacity="0.4" d="M49.9472 269.365C123.946 269.365 183.934 209.377 183.934 135.379C183.934 61.3799 123.946 1.39209 49.9472 1.39209C-24.0515 1.39209 -84.0394 61.3799 -84.0394 135.379C-84.0394 209.377 -24.0515 269.365 49.9472 269.365Z" stroke="#FFFAFF" stroke-width="0.905316"/>
<path opacity="0.4" d="M49.9472 295.128C123.946 295.128 183.934 235.141 183.934 161.142C183.934 87.1431 123.946 27.1553 49.9472 27.1553C-24.0515 27.1553 -84.0394 87.1431 -84.0394 161.142C-84.0394 235.141 -24.0515 295.128 49.9472 295.128Z" stroke="#FFFAFF" stroke-width="0.905316"/>
<path opacity="0.4" d="M49.9472 320.264C123.946 320.264 183.934 260.276 183.934 186.278C183.934 112.279 123.946 52.291 49.9472 52.291C-24.0515 52.291 -84.0394 112.279 -84.0394 186.278C-84.0394 260.276 -24.0515 320.264 49.9472 320.264Z" stroke="#FFFAFF" stroke-width="0.905316"/>
</g>
<defs>
<clipPath id="clip0_2316_531">
<rect width="269.206" height="320" fill="white" transform="translate(-84.6031 0.828125)"/>
</clipPath>
</defs>
</svg>
