<svg width="41" height="41" viewBox="0 0 41 41" fill="none" xmlns="http://www.w3.org/2000/svg">
<g clip-path="url(#clip0_2316_168)">
<path d="M20.3143 40.2031C31.36 40.2031 40.3143 31.2488 40.3143 20.2031C40.3143 9.15743 31.36 0.203125 20.3143 0.203125C9.26857 0.203125 0.31427 9.15743 0.31427 20.2031C0.31427 31.2488 9.26857 40.2031 20.3143 40.2031Z" fill="#00F59B"/>
<path fill-rule="evenodd" clip-rule="evenodd" d="M27.9728 14.4505C28.3885 14.8142 28.4306 15.446 28.0669 15.8616L19.3169 25.8616C18.9546 26.2757 18.3257 26.3193 17.9098 25.9591L12.6598 21.4137C12.2422 21.0522 12.1968 20.4206 12.5583 20.0031C12.9198 19.5856 13.5513 19.5401 13.9689 19.9016L18.4668 23.796L26.5617 14.5446C26.9254 14.129 27.5572 14.0869 27.9728 14.4505Z" fill="#FFFAFF"/>
</g>
<defs>
<clipPath id="clip0_2316_168">
<rect width="40" height="40" fill="white" transform="translate(0.31427 0.203125)"/>
</clipPath>
</defs>
</svg>
