<svg width="25" height="25" viewBox="0 0 25 25" fill="none" xmlns="http://www.w3.org/2000/svg">
<g clip-path="url(#clip0_2303_1038)">
<path d="M23.718 6.08398L15.7209 14.0811C14.8292 14.9705 13.6212 15.4701 12.3617 15.4701C11.1023 15.4701 9.89422 14.9705 9.00253 14.0811L1.00543 6.08398C0.992131 6.23408 0.961731 6.36993 0.961731 6.51908V17.919C0.963239 19.1784 1.46417 20.3858 2.35464 21.2762C3.24511 22.1667 4.45242 22.6676 5.71173 22.6691H19.0117C20.2711 22.6676 21.4783 22.1667 22.3688 21.2762C23.2593 20.3858 23.7602 19.1784 23.7618 17.919V6.51908C23.7618 6.36993 23.7313 6.23408 23.718 6.08398Z" fill="#FFFAFF"/>
<path d="M14.4091 14.1875L23.0864 5.5092C22.6661 4.81221 22.0733 4.23528 21.365 3.8341C20.6568 3.4329 19.8572 3.22097 19.0433 3.21875H5.74321C4.92927 3.22097 4.12964 3.4329 3.42144 3.8341C2.71323 4.23528 2.12037 4.81221 1.70001 5.5092L10.3773 14.1875C10.9127 14.7207 11.6376 15.0201 12.3932 15.0201C13.1489 15.0201 13.8738 14.7207 14.4091 14.1875Z" fill="#FFFAFF"/>
</g>
<defs>
<clipPath id="clip0_2303_1038">
<rect width="24" height="22.8" fill="white" transform="translate(0.5 0.818848)"/>
</clipPath>
</defs>
</svg>
