<svg width="56" height="57" viewBox="0 0 56 57" fill="none" xmlns="http://www.w3.org/2000/svg">
<g clip-path="url(#clip0_2303_969)">
<path d="M40.88 0.5H15.12C6.76946 0.5 0 7.26946 0 15.62V41.38C0 49.7305 6.76946 56.5 15.12 56.5H40.88C49.2305 56.5 56 49.7305 56 41.38V15.62C56 7.26946 49.2305 0.5 40.88 0.5Z" fill="#9D0AFF"/>
<path fill-rule="evenodd" clip-rule="evenodd" d="M28.4656 18.0771C26.2105 18.0771 24.3823 19.9054 24.3823 22.1605C24.3823 24.4157 26.2105 26.2438 28.4656 26.2438C30.7209 26.2438 32.549 24.4157 32.549 22.1605C32.549 19.9054 30.7209 18.0771 28.4656 18.0771ZM21.6602 22.1605C21.6602 18.4019 24.7071 15.355 28.4656 15.355C32.2243 15.355 35.2712 18.4019 35.2712 22.1605C35.2712 25.9191 32.2243 28.9661 28.4656 28.9661C24.7071 28.9661 21.6602 25.9191 21.6602 22.1605Z" fill="#FFFAFF"/>
<path fill-rule="evenodd" clip-rule="evenodd" d="M28.4658 33.0488C23.7802 33.0488 21.3171 34.7091 20.0883 36.7206C19.6606 37.4206 19.7683 38.0811 20.2904 38.6877C20.8599 39.3495 21.8897 39.8544 23.0213 39.8544H33.9102C35.0419 39.8544 36.0717 39.3495 36.6412 38.6877C37.1633 38.0811 37.2709 37.4206 36.8432 36.7206C35.6144 34.7091 33.1513 33.0488 28.4658 33.0488ZM17.7652 35.3015C19.6018 32.2951 23.0715 30.3267 28.4658 30.3267C33.8601 30.3267 37.3298 32.2951 39.1663 35.3015C40.3062 37.1675 39.8699 39.1093 38.7046 40.4634C37.5866 41.7624 35.7855 42.5767 33.9102 42.5767H23.0213C21.146 42.5767 19.3449 41.7624 18.227 40.4634C17.0617 39.1093 16.6254 37.1675 17.7652 35.3015Z" fill="#FFFAFF"/>
</g>
<defs>
<clipPath id="clip0_2303_969">
<rect width="56" height="56" fill="white" transform="translate(0 0.5)"/>
</clipPath>
</defs>
</svg>
