<svg width="210" height="125" viewBox="0 0 210 125" fill="none" xmlns="http://www.w3.org/2000/svg">
<g clip-path="url(#clip0_2316_531)">
<path opacity="0.4" d="M49.947 268.803C123.946 268.803 183.934 208.815 183.934 134.816C183.934 60.8174 123.946 0.82959 49.947 0.82959C-24.0517 0.82959 -84.0396 60.8174 -84.0396 134.816C-84.0396 208.815 -24.0517 268.803 49.947 268.803Z" stroke="#FFFAFF" stroke-width="0.905316"/>
<path opacity="0.4" d="M49.947 294.566C123.946 294.566 183.934 234.578 183.934 160.579C183.934 86.5806 123.946 26.5928 49.947 26.5928C-24.0517 26.5928 -84.0396 86.5806 -84.0396 160.579C-84.0396 234.578 -24.0517 294.566 49.947 294.566Z" stroke="#FFFAFF" stroke-width="0.905316"/>
<path opacity="0.4" d="M49.947 319.702C123.946 319.702 183.934 259.714 183.934 185.715C183.934 111.716 123.946 51.7285 49.947 51.7285C-24.0517 51.7285 -84.0396 111.716 -84.0396 185.715C-84.0396 259.714 -24.0517 319.702 49.947 319.702Z" stroke="#FFFAFF" stroke-width="0.905316"/>
</g>
<defs>
<clipPath id="clip0_2316_531">
<rect width="269.206" height="320" fill="white" transform="translate(-84.6033 0.265625)"/>
</clipPath>
</defs>
</svg>
