<svg width="41" height="41" viewBox="0 0 41 41" fill="none" xmlns="http://www.w3.org/2000/svg">
<g clip-path="url(#clip0_2316_168)">
<path d="M20.3142 40.2031C31.3599 40.2031 40.3142 31.2488 40.3142 20.2031C40.3142 9.15743 31.3599 0.203125 20.3142 0.203125C9.26851 0.203125 0.314209 9.15743 0.314209 20.2031C0.314209 31.2488 9.26851 40.2031 20.3142 40.2031Z" fill="#00F59B"/>
<path fill-rule="evenodd" clip-rule="evenodd" d="M27.9727 14.4505C28.3884 14.8142 28.4305 15.446 28.0668 15.8616L19.3168 25.8616C18.9545 26.2757 18.3256 26.3193 17.9097 25.9591L12.6597 21.4137C12.2421 21.0522 12.1967 20.4206 12.5582 20.0031C12.9197 19.5856 13.5512 19.5401 13.9688 19.9016L18.4667 23.796L26.5616 14.5446C26.9253 14.129 27.5571 14.0869 27.9727 14.4505Z" fill="#FFFAFF"/>
</g>
<defs>
<clipPath id="clip0_2316_168">
<rect width="40" height="40" fill="white" transform="translate(0.314209 0.203125)"/>
</clipPath>
</defs>
</svg>
