<svg width="41" height="41" viewBox="0 0 41 41" fill="none" xmlns="http://www.w3.org/2000/svg">
<g clip-path="url(#clip0_2316_150)">
<path d="M20.5331 40.2031C31.5788 40.2031 40.5331 31.2488 40.5331 20.2031C40.5331 9.15743 31.5788 0.203125 20.5331 0.203125C9.48739 0.203125 0.533081 9.15743 0.533081 20.2031C0.533081 31.2488 9.48739 40.2031 20.5331 40.2031Z" fill="#00F59B"/>
<path fill-rule="evenodd" clip-rule="evenodd" d="M28.1916 14.4505C28.6073 14.8142 28.6494 15.446 28.2857 15.8616L19.5357 25.8616C19.1734 26.2757 18.5445 26.3193 18.1286 25.9591L12.8786 21.4137C12.461 21.0522 12.4156 20.4206 12.7771 20.0031C13.1386 19.5856 13.7701 19.5401 14.1877 19.9016L18.6856 23.796L26.7805 14.5446C27.1442 14.129 27.776 14.0869 28.1916 14.4505Z" fill="#FFFAFF"/>
</g>
<defs>
<clipPath id="clip0_2316_150">
<rect width="40" height="40" fill="white" transform="translate(0.533081 0.203125)"/>
</clipPath>
</defs>
</svg>
