<svg width="56" height="57" viewBox="0 0 56 57" fill="none" xmlns="http://www.w3.org/2000/svg">
<g clip-path="url(#clip0_2303_978)">
<path d="M40.88 0.484375H15.12C6.76946 0.484375 0 7.25383 0 15.6044V41.3644C0 49.7149 6.76946 56.4844 15.12 56.4844H40.88C49.2305 56.4844 56 49.7149 56 41.3644V15.6044C56 7.25383 49.2305 0.484375 40.88 0.484375Z" fill="#9D0AFF"/>
<path fill-rule="evenodd" clip-rule="evenodd" d="M27.5334 17.129C21.5197 17.129 16.6445 22.0042 16.6445 28.0179C16.6445 30.3211 17.358 32.4536 18.5761 34.2114C18.9792 34.7932 19.0765 35.5699 18.7571 36.2569L17.5256 38.9067H27.5334C33.5472 38.9067 38.4222 34.0317 38.4222 28.0179C38.4222 22.0042 33.5472 17.129 27.5334 17.129ZM13.9222 28.0179C13.9222 20.5007 20.0162 14.4067 27.5334 14.4067C35.0506 14.4067 41.1445 20.5007 41.1445 28.0179C41.1445 35.5351 35.0506 41.629 27.5334 41.629H16.4561C14.9123 41.629 13.9357 39.9866 14.6492 38.6367L16.1297 35.4514C14.7338 33.3137 13.9222 30.7587 13.9222 28.0179Z" fill="#FFFAFF"/>
<path fill-rule="evenodd" clip-rule="evenodd" d="M22.0889 30.74C22.0889 29.9883 22.6984 29.3789 23.4501 29.3789H31.6168C32.3685 29.3789 32.9778 29.9883 32.9778 30.74C32.9778 31.4917 32.3685 32.1011 31.6168 32.1011H23.4501C22.6984 32.1011 22.0889 31.4917 22.0889 30.74Z" fill="#FFFAFF"/>
<path fill-rule="evenodd" clip-rule="evenodd" d="M22.0889 25.2956C22.0889 24.5439 22.6984 23.9346 23.4501 23.9346H26.1723C26.9241 23.9346 27.5334 24.5439 27.5334 25.2956C27.5334 26.0474 26.9241 26.6568 26.1723 26.6568H23.4501C22.6984 26.6568 22.0889 26.0474 22.0889 25.2956Z" fill="#FFFAFF"/>
</g>
<defs>
<clipPath id="clip0_2303_978">
<rect width="56" height="56" fill="white" transform="translate(0 0.484375)"/>
</clipPath>
</defs>
</svg>
