<svg width="25" height="25" viewBox="0 0 25 25" fill="none" xmlns="http://www.w3.org/2000/svg">
<g clip-path="url(#clip0_2303_1032)">
<path d="M20.9504 20.6693H17.394V15.0999C17.394 13.7717 17.3702 12.0626 15.5442 12.0626C13.692 12.0626 13.4082 13.5091 13.4082 15.004V20.6693H9.85293V9.21584H13.2675V10.7806H13.3147C14.0114 9.59076 15.3052 8.87995 16.6831 8.93081C20.288 8.93081 20.9515 11.3022 20.9515 14.3854L20.9504 20.6693ZM5.83997 7.64992C4.69984 7.64992 3.77613 6.72622 3.77613 5.58608C3.77613 4.44595 4.69984 3.52224 5.83997 3.52224C6.98011 3.52224 7.90381 4.44595 7.90381 5.58608C7.90381 6.72622 6.98011 7.64992 5.83997 7.64992ZM7.61759 20.6693H4.05761V9.21584H7.61759V20.6693ZM22.7232 0.220094H2.27053C1.30425 0.20945 0.511827 0.98413 0.5 1.95041V22.4871C0.511827 23.4545 1.30425 24.2292 2.27053 24.2186H22.7232C23.692 24.2305 24.4879 23.4558 24.5009 22.4871V1.94923C24.4867 0.980582 23.6907 0.205902 22.7232 0.218911" fill="#FFFAFF"/>
</g>
<defs>
<clipPath id="clip0_2303_1032">
<rect width="24" height="24" fill="white" transform="translate(0.5 0.21875)"/>
</clipPath>
</defs>
</svg>
