<svg width="25" height="25" viewBox="0 0 25 25" fill="none" xmlns="http://www.w3.org/2000/svg">
<g clip-path="url(#clip0_2316_473)">
<path d="M10.8704 1.95706C11.379 0.926423 12.8486 0.926423 13.3573 1.95706L15.8665 7.04126C16.0685 7.45053 16.4589 7.7342 16.9106 7.79983L22.5213 8.61512C23.6588 8.78039 24.1129 10.1781 23.2899 10.9803L19.2299 14.9379C18.903 15.2564 18.754 15.7154 18.8311 16.1652L19.7895 21.7533C19.9838 22.8861 18.7949 23.7499 17.7775 23.2151L12.7591 20.5768C12.3551 20.3644 11.8725 20.3644 11.4685 20.5768L6.45016 23.2151C5.43286 23.7499 4.24388 22.8861 4.43817 21.7533L5.3966 16.1652C5.47375 15.7154 5.32462 15.2564 4.9978 14.9379L0.937821 10.9803C0.114809 10.1781 0.568958 8.78039 1.70633 8.61512L7.31708 7.79983C7.76874 7.7342 8.15917 7.45053 8.36116 7.04126L10.8704 1.95706Z" fill="#00F59B"/>
</g>
<defs>
<clipPath id="clip0_2316_473">
<rect width="24" height="23.1111" fill="white" transform="translate(0.263214 0.850586)"/>
</clipPath>
</defs>
</svg>
