<svg width="24" height="25" viewBox="0 0 24 25" fill="none" xmlns="http://www.w3.org/2000/svg">
<g clip-path="url(#clip0_2316_558)">
<path d="M21.1422 7.8683C21.0489 7.93857 20.9964 8.05057 21.0002 8.16735C21.0048 8.31092 21.0048 8.45496 21.0048 8.59947C21.0048 14.939 16.1786 22.2489 7.35625 22.25C7.35517 22.25 7.35427 22.2491 7.35427 22.2481C7.35427 22.247 7.3534 22.2461 7.35232 22.2461C5.12917 22.2491 2.94506 21.7063 0.989257 20.6726C0.74301 20.5425 0.864324 20.1642 1.14285 20.1649C2.98545 20.1666 4.78273 19.6398 6.32511 18.6571C6.59411 18.4857 6.46911 18.0642 6.15762 17.9956C4.69546 17.6736 3.45597 16.682 2.8262 15.3085C2.71874 15.0741 2.92935 14.8311 3.18652 14.8493C3.24616 14.8535 3.30584 14.8566 3.36554 14.8586C3.7232 14.8705 3.75595 14.3763 3.44158 14.2053C1.92983 13.3831 0.936286 11.7842 0.936286 9.98985C0.936286 9.96278 0.965421 9.94565 0.989236 9.95853C1.29524 10.1241 1.61729 10.255 1.94959 10.3497C2.27729 10.443 2.44993 10.0131 2.22102 9.76068C0.953849 8.3635 0.608571 6.31807 1.4031 4.56199C1.50094 4.34573 1.78858 4.32231 1.94483 4.501C4.27138 7.16162 7.54339 8.81445 11.0667 9.10829C11.2914 9.12702 11.4648 8.91932 11.4345 8.69594C11.2278 7.16857 11.7677 5.62274 12.9031 4.554C14.7894 2.77995 17.7307 2.82703 19.56 4.62814C19.6432 4.71005 19.761 4.74927 19.8751 4.72449C20.5912 4.56895 21.286 4.33178 21.9468 4.01884C22.2293 3.8851 22.5345 4.14638 22.3852 4.42088C22.229 4.70817 22.0441 4.97833 21.8339 5.22735C21.5978 5.50701 21.8327 6.03728 22.1841 5.93485C22.2194 5.92456 22.2546 5.91406 22.2898 5.90336C22.6149 5.80454 22.8999 6.16917 22.6787 6.42704C22.2207 6.96079 21.7057 7.44415 21.1422 7.8683Z" fill="#FFFAFF"/>
</g>
<defs>
<clipPath id="clip0_2316_558">
<rect width="24" height="19" fill="white" transform="translate(0 3.25)"/>
</clipPath>
</defs>
</svg>
