<svg width="41" height="41" viewBox="0 0 41 41" fill="none" xmlns="http://www.w3.org/2000/svg">
<g clip-path="url(#clip0_2316_174)">
<path d="M20.0173 40.2031C31.063 40.2031 40.0173 31.2488 40.0173 20.2031C40.0173 9.15743 31.063 0.203125 20.0173 0.203125C8.97164 0.203125 0.017334 9.15743 0.017334 20.2031C0.017334 31.2488 8.97164 40.2031 20.0173 40.2031Z" fill="#00F59B"/>
<path fill-rule="evenodd" clip-rule="evenodd" d="M27.6758 14.4505C28.0915 14.8142 28.1336 15.446 27.7699 15.8616L19.0199 25.8616C18.6576 26.2757 18.0287 26.3193 17.6128 25.9591L12.3628 21.4137C11.9452 21.0522 11.8998 20.4206 12.2613 20.0031C12.6228 19.5856 13.2543 19.5401 13.6719 19.9016L18.1698 23.796L26.2647 14.5446C26.6284 14.129 27.2602 14.0869 27.6758 14.4505Z" fill="#FFFAFF"/>
</g>
<defs>
<clipPath id="clip0_2316_174">
<rect width="40" height="40" fill="white" transform="translate(0.017334 0.203125)"/>
</clipPath>
</defs>
</svg>
