<svg width="20" height="35" viewBox="0 0 20 35" fill="none" xmlns="http://www.w3.org/2000/svg">
<g clip-path="url(#clip0_2303_707)">
<path d="M2.20233 34.3125C11.5912 34.3125 19.2023 26.7013 19.2023 17.3125C19.2023 7.92366 11.5912 0.3125 2.20233 0.3125C-7.18651 0.3125 -14.7977 7.92366 -14.7977 17.3125C-14.7977 26.7013 -7.18651 34.3125 2.20233 34.3125Z" fill="#00F59B"/>
<path fill-rule="evenodd" clip-rule="evenodd" d="M8.71207 12.4228C9.06542 12.7319 9.1012 13.269 8.79206 13.6222L1.35456 22.1222C1.0466 22.4742 0.512039 22.5113 0.158524 22.2051L-4.30398 18.3415C-4.65894 18.0342 -4.69753 17.4974 -4.39025 17.1425C-4.08298 16.7876 -3.5462 16.749 -3.19124 17.0562L0.631973 20.3665L7.51264 12.5028C7.82178 12.1495 8.35881 12.1137 8.71207 12.4228Z" fill="#FFFAFF"/>
</g>
<defs>
<clipPath id="clip0_2303_707">
<rect width="34" height="34" fill="white" transform="translate(-14.7977 0.3125)"/>
</clipPath>
</defs>
</svg>
