<svg width="41" height="41" viewBox="0 0 41 41" fill="none" xmlns="http://www.w3.org/2000/svg">
<g clip-path="url(#clip0_2316_162)">
<path d="M20.8143 40.2031C31.86 40.2031 40.8143 31.2488 40.8143 20.2031C40.8143 9.15743 31.86 0.203125 20.8143 0.203125C9.76864 0.203125 0.814331 9.15743 0.814331 20.2031C0.814331 31.2488 9.76864 40.2031 20.8143 40.2031Z" fill="#00F59B"/>
<path fill-rule="evenodd" clip-rule="evenodd" d="M28.4728 14.4505C28.8885 14.8142 28.9306 15.446 28.5669 15.8616L19.8169 25.8616C19.4546 26.2757 18.8257 26.3193 18.4098 25.9591L13.1598 21.4137C12.7422 21.0522 12.6968 20.4206 13.0583 20.0031C13.4198 19.5856 14.0513 19.5401 14.4689 19.9016L18.9668 23.796L27.0617 14.5446C27.4254 14.129 28.0572 14.0869 28.4728 14.4505Z" fill="#FFFAFF"/>
</g>
<defs>
<clipPath id="clip0_2316_162">
<rect width="40" height="40" fill="white" transform="translate(0.814331 0.203125)"/>
</clipPath>
</defs>
</svg>
