<svg width="24" height="25" viewBox="0 0 24 25" fill="none" xmlns="http://www.w3.org/2000/svg">
<path d="M23.2179 6.61523L15.2209 14.6123C14.3292 15.5018 13.1211 16.0013 11.8617 16.0013C10.6022 16.0013 9.39416 15.5018 8.50247 14.6123L0.505369 6.61523C0.49207 6.76533 0.46167 6.90118 0.46167 7.05033V18.4503C0.463178 19.7097 0.964108 20.917 1.85457 21.8074C2.74505 22.6979 3.95235 23.1988 5.21167 23.2004H18.5116C19.771 23.1988 20.9782 22.6979 21.8688 21.8074C22.7593 20.917 23.2602 19.7097 23.2617 18.4503V7.05033C23.2617 6.90118 23.2312 6.76533 23.2179 6.61523Z" fill="#FFFAFF"/>
<path d="M13.909 14.7187L22.5864 6.04045C22.166 5.34346 21.5732 4.76653 20.865 4.36535C20.1567 3.96415 19.3571 3.75222 18.5432 3.75H5.24315C4.42921 3.75222 3.62958 3.96415 2.92138 4.36535C2.21317 4.76653 1.62031 5.34346 1.19995 6.04045L9.87726 14.7187C10.4127 15.252 11.1375 15.5514 11.8932 15.5514C12.6488 15.5514 13.3737 15.252 13.909 14.7187Z" fill="#FFFAFF"/>
</svg>
