<svg width="35" height="35" viewBox="0 0 35 35" fill="none" xmlns="http://www.w3.org/2000/svg">
<g clip-path="url(#clip0_2303_713)">
<path d="M17.2023 34.3125C26.5912 34.3125 34.2023 26.7013 34.2023 17.3125C34.2023 7.92366 26.5912 0.3125 17.2023 0.3125C7.81349 0.3125 0.202332 7.92366 0.202332 17.3125C0.202332 26.7013 7.81349 34.3125 17.2023 34.3125Z" fill="#00F59B"/>
<path fill-rule="evenodd" clip-rule="evenodd" d="M23.7121 12.4228C24.0654 12.7319 24.1012 13.269 23.7921 13.6222L16.3546 22.1222C16.0466 22.4742 15.512 22.5113 15.1585 22.2051L10.696 18.3415C10.3411 18.0342 10.3025 17.4974 10.6097 17.1425C10.917 16.7876 11.4538 16.749 11.8088 17.0562L15.632 20.3665L22.5126 12.5028C22.8218 12.1495 23.3588 12.1137 23.7121 12.4228Z" fill="#FFFAFF"/>
</g>
<defs>
<clipPath id="clip0_2303_713">
<rect width="34" height="34" fill="white" transform="translate(0.202332 0.3125)"/>
</clipPath>
</defs>
</svg>
