<svg width="121" height="34" viewBox="0 0 121 34" fill="none" xmlns="http://www.w3.org/2000/svg">
<g clip-path="url(#clip0_2303_1022)">
<path d="M50.6823 20.2688C54.0102 20.2688 56.236 18.087 56.236 14.8253C56.236 11.5636 54.0102 9.38184 50.6823 9.38184H44.0709V25.6903H47.6411V20.2688H50.6823ZM49.8889 12.5553C51.608 12.5553 52.4674 13.3047 52.4674 14.8253C52.4674 16.346 51.608 17.0953 49.8889 17.0953H47.6411V12.5553H49.8889ZM62.6251 25.9768C65.6443 25.9768 67.8261 24.412 68.2228 21.9657H65.1154C64.8731 22.7591 63.9694 23.222 62.6912 23.222C61.1925 23.222 60.3772 22.5388 60.1788 21.0842L68.1788 21.0402V20.1806C68.1788 16.5884 66.019 14.3184 62.559 14.3184C59.2312 14.3184 56.9171 16.7206 56.9171 20.1586C56.9171 23.5525 59.2973 25.9768 62.6251 25.9768ZM62.5811 17.0732C63.9474 17.0732 64.8069 17.8226 64.8069 18.9906H60.2229C60.4873 17.6683 61.2367 17.0732 62.5811 17.0732ZM70.1886 30.9794H73.5825V24.5884C74.2216 25.4258 75.632 25.9988 77.1527 25.9988C80.4364 25.9988 82.3317 23.4864 82.3317 20.0044C82.3317 16.4562 80.194 14.3184 77.1307 14.3184C75.566 14.3184 74.1775 15.0016 73.5605 16.0154L73.3842 14.6711H70.1886V30.9794ZM73.6045 20.1806C73.6045 18.5278 74.7064 17.4259 76.2932 17.4259C77.902 17.4259 78.9158 18.5498 78.9158 20.1806C78.9158 21.8115 77.902 22.9354 76.2932 22.9354C74.7064 22.9354 73.6045 21.8335 73.6045 20.1806ZM84.2854 30.9794H87.6793V24.5884C88.3184 25.4258 89.7289 25.9988 91.2495 25.9988C94.5332 25.9988 96.4285 23.4864 96.4285 20.0044C96.4285 16.4562 94.2909 14.3184 91.2275 14.3184C89.6628 14.3184 88.2744 15.0016 87.6573 16.0154L87.481 14.6711H84.2854V30.9794ZM87.7013 20.1806C87.7013 18.5278 88.8032 17.4259 90.39 17.4259C91.9988 17.4259 93.0126 18.5498 93.0126 20.1806C93.0126 21.8115 91.9988 22.9354 90.39 22.9354C88.8032 22.9354 87.7013 21.8335 87.7013 20.1806ZM103.495 25.9768C106.514 25.9768 108.696 24.412 109.093 21.9657H105.986C105.743 22.7591 104.839 23.222 103.561 23.222C102.062 23.222 101.247 22.5388 101.049 21.0842L109.049 21.0402V20.1806C109.049 16.5884 106.889 14.3184 103.429 14.3184C100.102 14.3184 97.7872 16.7206 97.7872 20.1586C97.7872 23.5525 100.167 25.9768 103.495 25.9768ZM103.451 17.0732C104.817 17.0732 105.677 17.8226 105.677 18.9906H101.093C101.357 17.6683 102.107 17.0732 103.451 17.0732ZM118.64 14.6711C118.177 14.5609 117.737 14.5168 117.34 14.5168C115.863 14.5168 114.893 15.2441 114.43 16.3239L114.255 14.6931H111.058V25.6903H114.453V20.908C114.453 18.7262 115.62 17.8666 117.56 17.8666H118.64V14.6711Z" fill="#FFFAFF"/>
<path d="M24.7427 0.346191H9.31585C4.44726 0.346191 0.500488 4.29296 0.500488 9.16155V24.5884C0.500488 29.457 4.44726 33.4038 9.31585 33.4038H24.7427C29.6113 33.4038 33.5581 29.457 33.5581 24.5884V9.16155C33.5581 4.29296 29.6113 0.346191 24.7427 0.346191Z" fill="#9D0AFF"/>
<path d="M22.7593 10.2637H11.2993C10.8125 10.2637 10.4178 10.6583 10.4178 11.1452V13.7898C10.4178 14.2767 10.8125 14.6713 11.2993 14.6713H22.7593C23.2461 14.6713 23.6408 14.2767 23.6408 13.7898V11.1452C23.6408 10.6583 23.2461 10.2637 22.7593 10.2637Z" fill="#FFFAFF"/>
<path d="M22.7593 19.0786H11.2993C10.8125 19.0786 10.4178 19.4733 10.4178 19.9601V22.6048C10.4178 23.0916 10.8125 23.4863 11.2993 23.4863H22.7593C23.2461 23.4863 23.6408 23.0916 23.6408 22.6048V19.9601C23.6408 19.4733 23.2461 19.0786 22.7593 19.0786Z" fill="#FFFAFF"/>
</g>
<defs>
<clipPath id="clip0_2303_1022">
<rect width="119.999" height="33.7188" fill="white" transform="translate(0.500488 0.015625)"/>
</clipPath>
</defs>
</svg>
