<svg width="24" height="25" viewBox="0 0 24 25" fill="none" xmlns="http://www.w3.org/2000/svg">
<path d="M23.218 6.61523L15.2209 14.6123C14.3292 15.5018 13.1212 16.0013 11.8617 16.0013C10.6023 16.0013 9.39422 15.5018 8.50253 14.6123L0.50543 6.61523C0.492131 6.76533 0.461731 6.90118 0.461731 7.05033V18.4503C0.463239 19.7097 0.964169 20.917 1.85464 21.8074C2.74511 22.6979 3.95242 23.1988 5.21173 23.2004H18.5117C19.7711 23.1988 20.9783 22.6979 21.8688 21.8074C22.7593 20.917 23.2602 19.7097 23.2618 18.4503V7.05033C23.2618 6.90118 23.2313 6.76533 23.218 6.61523Z" fill="#FFFAFF"/>
<path d="M13.9091 14.7187L22.5864 6.04045C22.1661 5.34346 21.5733 4.76653 20.865 4.36535C20.1568 3.96415 19.3572 3.75222 18.5433 3.75H5.24321C4.42927 3.75222 3.62964 3.96415 2.92144 4.36535C2.21323 4.76653 1.62037 5.34346 1.20001 6.04045L9.87732 14.7187C10.4127 15.252 11.1376 15.5514 11.8932 15.5514C12.6489 15.5514 13.3738 15.252 13.9091 14.7187Z" fill="#FFFAFF"/>
</svg>
