<svg width="41" height="41" viewBox="0 0 41 41" fill="none" xmlns="http://www.w3.org/2000/svg">
<g clip-path="url(#clip0_2316_162)">
<path d="M20.8142 40.2031C31.8599 40.2031 40.8142 31.2488 40.8142 20.2031C40.8142 9.15743 31.8599 0.203125 20.8142 0.203125C9.76851 0.203125 0.814209 9.15743 0.814209 20.2031C0.814209 31.2488 9.76851 40.2031 20.8142 40.2031Z" fill="#00F59B"/>
<path fill-rule="evenodd" clip-rule="evenodd" d="M28.4727 14.4505C28.8884 14.8142 28.9305 15.446 28.5668 15.8616L19.8168 25.8616C19.4545 26.2757 18.8256 26.3193 18.4097 25.9591L13.1597 21.4137C12.7421 21.0522 12.6967 20.4206 13.0582 20.0031C13.4197 19.5856 14.0512 19.5401 14.4688 19.9016L18.9667 23.796L27.0616 14.5446C27.4253 14.129 28.0571 14.0869 28.4727 14.4505Z" fill="#FFFAFF"/>
</g>
<defs>
<clipPath id="clip0_2316_162">
<rect width="40" height="40" fill="white" transform="translate(0.814209 0.203125)"/>
</clipPath>
</defs>
</svg>
