<svg width="41" height="41" viewBox="0 0 41 41" fill="none" xmlns="http://www.w3.org/2000/svg">
<g clip-path="url(#clip0_2316_144)">
<path d="M20.7206 40.2031C31.7663 40.2031 40.7206 31.2488 40.7206 20.2031C40.7206 9.15743 31.7663 0.203125 20.7206 0.203125C9.67489 0.203125 0.720581 9.15743 0.720581 20.2031C0.720581 31.2488 9.67489 40.2031 20.7206 40.2031Z" fill="#00F59B"/>
<path fill-rule="evenodd" clip-rule="evenodd" d="M28.3791 14.4505C28.7948 14.8142 28.8369 15.446 28.4732 15.8616L19.7232 25.8616C19.3609 26.2757 18.732 26.3193 18.3161 25.9591L13.0661 21.4137C12.6485 21.0522 12.6031 20.4206 12.9646 20.0031C13.3261 19.5856 13.9576 19.5401 14.3752 19.9016L18.8731 23.796L26.968 14.5446C27.3317 14.129 27.9635 14.0869 28.3791 14.4505Z" fill="#FFFAFF"/>
</g>
<defs>
<clipPath id="clip0_2316_144">
<rect width="40" height="40" fill="white" transform="translate(0.720581 0.203125)"/>
</clipPath>
</defs>
</svg>
