<svg width="25" height="25" viewBox="0 0 25 25" fill="none" xmlns="http://www.w3.org/2000/svg">
<g clip-path="url(#clip0_2303_1035)">
<path d="M21.6423 7.33705C21.549 7.40732 21.4965 7.51932 21.5003 7.6361C21.5049 7.77967 21.5049 7.92371 21.5049 8.06822C21.5049 14.4078 16.6787 21.7177 7.85631 21.7188C7.85523 21.7188 7.85433 21.7179 7.85433 21.7169C7.85433 21.7158 7.85346 21.7148 7.85238 21.7148C5.62923 21.7178 3.44512 21.175 1.48932 20.1413C1.24307 20.0112 1.36438 19.6329 1.64291 19.6336C3.48551 19.6353 5.28279 19.1085 6.82517 18.1258C7.09417 17.9544 6.96917 17.5329 6.65768 17.4643C5.19552 17.1423 3.95603 16.1508 3.32626 14.7773C3.2188 14.5429 3.42941 14.2999 3.68658 14.3181C3.74622 14.3223 3.8059 14.3253 3.8656 14.3273C4.22326 14.3392 4.25601 13.8451 3.94164 13.6741C2.42989 12.8519 1.43635 11.2529 1.43635 9.4586C1.43635 9.43153 1.46548 9.4144 1.4893 9.42728C1.7953 9.59288 2.11735 9.72378 2.44965 9.81844C2.77735 9.91178 2.94999 9.48182 2.72108 9.22943C1.45391 7.83225 1.10863 5.78682 1.90316 4.03074C2.001 3.81448 2.28864 3.79106 2.44489 3.96975C4.77144 6.63037 8.04345 8.2832 11.5668 8.57704C11.7915 8.59577 11.9649 8.38807 11.9346 8.16469C11.7279 6.63732 12.2678 5.09149 13.4032 4.02275C15.2895 2.2487 18.2308 2.29578 20.0601 4.09689C20.1433 4.1788 20.2611 4.21802 20.3752 4.19324C21.0913 4.0377 21.7861 3.80053 22.4469 3.48759C22.7294 3.35385 23.0346 3.61513 22.8853 3.88963C22.7291 4.17692 22.5442 4.44708 22.334 4.6961C22.0979 4.97576 22.3328 5.50603 22.6842 5.4036C22.7195 5.39331 22.7547 5.38281 22.7899 5.37211C23.115 5.27329 23.4 5.63792 23.1788 5.89579C22.7208 6.42954 22.2058 6.9129 21.6423 7.33705Z" fill="#FFFAFF"/>
</g>
<defs>
<clipPath id="clip0_2303_1035">
<rect width="24" height="19" fill="white" transform="translate(0.5 2.71875)"/>
</clipPath>
</defs>
</svg>
