<svg width="41" height="41" viewBox="0 0 41 41" fill="none" xmlns="http://www.w3.org/2000/svg">
<g clip-path="url(#clip0_2316_144)">
<path d="M20.7205 40.2031C31.7662 40.2031 40.7205 31.2488 40.7205 20.2031C40.7205 9.15743 31.7662 0.203125 20.7205 0.203125C9.67476 0.203125 0.720459 9.15743 0.720459 20.2031C0.720459 31.2488 9.67476 40.2031 20.7205 40.2031Z" fill="#00F59B"/>
<path fill-rule="evenodd" clip-rule="evenodd" d="M28.379 14.4505C28.7947 14.8142 28.8368 15.446 28.4731 15.8616L19.7231 25.8616C19.3608 26.2757 18.7319 26.3193 18.316 25.9591L13.066 21.4137C12.6484 21.0522 12.603 20.4206 12.9645 20.0031C13.326 19.5856 13.9575 19.5401 14.3751 19.9016L18.873 23.796L26.9679 14.5446C27.3316 14.129 27.9634 14.0869 28.379 14.4505Z" fill="#FFFAFF"/>
</g>
<defs>
<clipPath id="clip0_2316_144">
<rect width="40" height="40" fill="white" transform="translate(0.720459 0.203125)"/>
</clipPath>
</defs>
</svg>
