<svg width="24" height="25" viewBox="0 0 24 25" fill="none" xmlns="http://www.w3.org/2000/svg">
<g clip-path="url(#clip0_2316_558)">
<path d="M21.1423 7.8683C21.049 7.93857 20.9965 8.05057 21.0003 8.16735C21.0049 8.31092 21.0049 8.45496 21.0049 8.59947C21.0049 14.939 16.1787 22.2489 7.35631 22.25C7.35523 22.25 7.35433 22.2491 7.35433 22.2481C7.35433 22.247 7.35346 22.2461 7.35238 22.2461C5.12923 22.2491 2.94512 21.7063 0.989318 20.6726C0.743071 20.5425 0.864385 20.1642 1.14291 20.1649C2.98551 20.1666 4.78279 19.6398 6.32517 18.6571C6.59417 18.4857 6.46917 18.0642 6.15768 17.9956C4.69552 17.6736 3.45603 16.682 2.82626 15.3085C2.7188 15.0741 2.92941 14.8311 3.18658 14.8493C3.24622 14.8535 3.3059 14.8566 3.3656 14.8586C3.72326 14.8705 3.75601 14.3763 3.44164 14.2053C1.92989 13.3831 0.936347 11.7842 0.936347 9.98985C0.936347 9.96278 0.965482 9.94565 0.989297 9.95853C1.2953 10.1241 1.61735 10.255 1.94965 10.3497C2.27735 10.443 2.44999 10.0131 2.22108 9.76068C0.95391 8.3635 0.608632 6.31807 1.40316 4.56199C1.501 4.34573 1.78864 4.32231 1.94489 4.501C4.27144 7.16162 7.54345 8.81445 11.0668 9.10829C11.2915 9.12702 11.4649 8.91932 11.4346 8.69594C11.2279 7.16857 11.7678 5.62274 12.9032 4.554C14.7895 2.77995 17.7308 2.82703 19.5601 4.62814C19.6433 4.71005 19.7611 4.74927 19.8752 4.72449C20.5913 4.56895 21.2861 4.33178 21.9469 4.01884C22.2294 3.8851 22.5346 4.14638 22.3853 4.42088C22.2291 4.70817 22.0442 4.97833 21.834 5.22735C21.5979 5.50701 21.8328 6.03728 22.1842 5.93485C22.2195 5.92456 22.2547 5.91406 22.2899 5.90336C22.615 5.80454 22.9 6.16917 22.6788 6.42704C22.2208 6.96079 21.7058 7.44415 21.1423 7.8683Z" fill="#FFFAFF"/>
</g>
<defs>
<clipPath id="clip0_2316_558">
<rect width="24" height="19" fill="white" transform="translate(0 3.25)"/>
</clipPath>
</defs>
</svg>
