<svg width="41" height="41" viewBox="0 0 41 41" fill="none" xmlns="http://www.w3.org/2000/svg">
<g clip-path="url(#clip0_2316_156)">
<path d="M20.533 40.2031C31.5787 40.2031 40.533 31.2488 40.533 20.2031C40.533 9.15743 31.5787 0.203125 20.533 0.203125C9.48726 0.203125 0.532959 9.15743 0.532959 20.2031C0.532959 31.2488 9.48726 40.2031 20.533 40.2031Z" fill="#00F59B"/>
<path fill-rule="evenodd" clip-rule="evenodd" d="M28.1915 14.4505C28.6072 14.8142 28.6493 15.446 28.2856 15.8616L19.5356 25.8616C19.1733 26.2757 18.5444 26.3193 18.1285 25.9591L12.8785 21.4137C12.4609 21.0522 12.4155 20.4206 12.777 20.0031C13.1385 19.5856 13.77 19.5401 14.1876 19.9016L18.6855 23.796L26.7804 14.5446C27.1441 14.129 27.7759 14.0869 28.1915 14.4505Z" fill="#FFFAFF"/>
</g>
<defs>
<clipPath id="clip0_2316_156">
<rect width="40" height="40" fill="white" transform="translate(0.532959 0.203125)"/>
</clipPath>
</defs>
</svg>
