<svg width="56" height="56" viewBox="0 0 56 56" fill="none" xmlns="http://www.w3.org/2000/svg">
<g clip-path="url(#clip0_2316_224)">
<path d="M39.2001 0H16.8001C7.52174 0 0.00012207 7.52162 0.00012207 16.8V39.2C0.00012207 48.4784 7.52174 56 16.8001 56H39.2001C48.4785 56 56.0001 48.4784 56.0001 39.2V16.8C56.0001 7.52162 48.4785 0 39.2001 0Z" fill="#00F59B"/>
<path fill-rule="evenodd" clip-rule="evenodd" d="M28.4667 17.5777C26.2116 17.5777 24.3834 19.4058 24.3834 21.6611C24.3834 23.9162 26.2116 25.7444 28.4667 25.7444C30.722 25.7444 32.5501 23.9162 32.5501 21.6611C32.5501 19.4058 30.722 17.5777 28.4667 17.5777ZM21.6613 21.6611C21.6613 17.9024 24.7081 14.8555 28.4667 14.8555C32.2254 14.8555 35.2723 17.9024 35.2723 21.6611C35.2723 25.4197 32.2254 28.4666 28.4667 28.4666C24.7081 28.4666 21.6613 25.4197 21.6613 21.6611Z" fill="#151531"/>
<path fill-rule="evenodd" clip-rule="evenodd" d="M28.4668 32.55C23.7813 32.55 21.3182 34.2103 20.0894 36.2219C19.6617 36.9219 19.7694 37.5823 20.2914 38.189C20.8609 38.8507 21.8907 39.3556 23.0224 39.3556H33.9113C35.043 39.3556 36.0727 38.8507 36.6423 38.189C37.1644 37.5823 37.272 36.9219 36.8443 36.2219C35.6155 34.2103 33.1524 32.55 28.4668 32.55ZM17.7663 34.8027C19.6029 31.7963 23.0725 29.8279 28.4668 29.8279C33.8612 29.8279 37.3309 31.7963 39.1674 34.8027C40.3073 36.6687 39.8709 38.6105 38.7056 39.9646C37.5877 41.2636 35.7866 42.0779 33.9113 42.0779H23.0224C21.1471 42.0779 19.346 41.2636 18.2281 39.9646C17.0628 38.6105 16.6265 36.6687 17.7663 34.8027Z" fill="#151531"/>
</g>
<g clip-path="url(#clip1_2316_224)">
<path d="M39.2001 0H16.8001C7.52174 0 0.00012207 7.52162 0.00012207 16.8V39.2C0.00012207 48.4784 7.52174 56 16.8001 56H39.2001C48.4785 56 56.0001 48.4784 56.0001 39.2V16.8C56.0001 7.52162 48.4785 0 39.2001 0Z" fill="#9D0AFF"/>
<path fill-rule="evenodd" clip-rule="evenodd" d="M28.4667 17.5777C26.2116 17.5777 24.3834 19.4058 24.3834 21.6611C24.3834 23.9162 26.2116 25.7444 28.4667 25.7444C30.722 25.7444 32.5501 23.9162 32.5501 21.6611C32.5501 19.4058 30.722 17.5777 28.4667 17.5777ZM21.6613 21.6611C21.6613 17.9024 24.7081 14.8555 28.4667 14.8555C32.2254 14.8555 35.2723 17.9024 35.2723 21.6611C35.2723 25.4197 32.2254 28.4666 28.4667 28.4666C24.7081 28.4666 21.6613 25.4197 21.6613 21.6611Z" fill="#FFFAFF"/>
<path fill-rule="evenodd" clip-rule="evenodd" d="M28.4668 32.55C23.7813 32.55 21.3182 34.2103 20.0894 36.2219C19.6617 36.9219 19.7694 37.5823 20.2914 38.189C20.8609 38.8507 21.8907 39.3556 23.0224 39.3556H33.9113C35.043 39.3556 36.0727 38.8507 36.6423 38.189C37.1644 37.5823 37.272 36.9219 36.8443 36.2219C35.6155 34.2103 33.1524 32.55 28.4668 32.55ZM17.7663 34.8027C19.6029 31.7963 23.0725 29.8279 28.4668 29.8279C33.8612 29.8279 37.3309 31.7963 39.1674 34.8027C40.3073 36.6687 39.8709 38.6105 38.7056 39.9646C37.5877 41.2636 35.7866 42.0779 33.9113 42.0779H23.0224C21.1471 42.0779 19.346 41.2636 18.2281 39.9646C17.0628 38.6105 16.6265 36.6687 17.7663 34.8027Z" fill="#FFFAFF"/>
</g>
<defs>
<clipPath id="clip0_2316_224">
<rect width="56" height="56" fill="white"/>
</clipPath>
<clipPath id="clip1_2316_224">
<rect width="56" height="56" fill="white"/>
</clipPath>
</defs>
</svg>
