<svg width="334" height="73" viewBox="0 0 334 73" fill="none" xmlns="http://www.w3.org/2000/svg">
<g opacity="0.4">
<path d="M40.4017 56.9569H26.9445L40.4017 36.6069H53.859L40.4017 56.9569Z" fill="#050038"/>
<path d="M35.4784 15.6006H49.2638L35.4784 36.6068H21.693L35.4784 15.6006Z" fill="#050038"/>
<path d="M81.3121 33.3038C81.3121 34.5516 81.0112 35.7217 80.4094 36.8139C79.8301 37.9056 78.9053 38.7859 77.6352 39.4546C76.3871 40.123 74.805 40.4573 72.8885 40.4573H68.9772V49.4158H64.2975V26.0835H72.8885C74.6935 26.0835 76.2311 26.3955 77.5013 27.0195C78.7718 27.6434 79.7186 28.5014 80.3429 29.5934C80.9892 30.6853 81.3121 31.9222 81.3121 33.3038ZM72.6877 36.68C73.9803 36.68 74.9385 36.3905 75.5627 35.8107C76.1866 35.2093 76.4985 34.3736 76.4985 33.3038C76.4985 31.0308 75.2284 29.8942 72.6877 29.8942H68.9772V36.68H72.6877Z" fill="#050038"/>
<path d="M87.9777 33.7718C88.5795 32.7913 89.3593 32.0224 90.3176 31.4653C91.2982 30.9082 92.4124 30.6296 93.6605 30.6296V35.5433H92.4235C90.9528 35.5433 89.8386 35.8887 89.0809 36.5799C88.3456 37.2707 87.9777 38.4739 87.9777 40.1899V49.4158H83.298V30.8971H87.9777V33.7718Z" fill="#050038"/>
<path d="M103.699 49.7167C101.916 49.7167 100.311 49.3268 98.8849 48.547C97.4587 47.7447 96.3331 46.6191 95.5088 45.1705C94.7065 43.7219 94.3052 42.0508 94.3052 40.1564C94.3052 38.2624 94.7176 36.5909 95.5423 35.1424C96.3891 33.6938 97.5367 32.5796 98.9853 31.7996C100.434 30.9973 102.05 30.5962 103.833 30.5962C105.615 30.5962 107.231 30.9973 108.679 31.7996C110.128 32.5796 111.264 33.6938 112.089 35.1424C112.936 36.5909 113.359 38.2624 113.359 40.1564C113.359 42.0508 112.925 43.7219 112.056 45.1705C111.209 46.6191 110.05 47.7447 108.579 48.547C107.131 49.3268 105.504 49.7167 103.699 49.7167ZM103.699 45.6384C104.545 45.6384 105.337 45.4379 106.072 45.037C106.83 44.6136 107.432 43.9894 107.877 43.165C108.323 42.3403 108.546 41.3376 108.546 40.1564C108.546 38.3959 108.078 37.0478 107.142 36.1116C106.228 35.1534 105.103 34.6745 103.766 34.6745C102.429 34.6745 101.303 35.1534 100.389 36.1116C99.4977 37.0478 99.0523 38.3959 99.0523 40.1564C99.0523 41.9169 99.4867 43.2765 100.356 44.2347C101.247 45.1705 102.362 45.6384 103.699 45.6384Z" fill="#050038"/>
<path d="M120.135 45.7054H125.161V49.4158H115.455V23.2087H120.135V45.7054Z" fill="#050038"/>
<path d="M128.791 28.6909C127.967 28.6909 127.276 28.4346 126.719 27.922C126.184 27.3872 125.916 26.7298 125.916 25.9498C125.916 25.1698 126.184 24.5236 126.719 24.011C127.276 23.4762 127.967 23.2087 128.791 23.2087C129.616 23.2087 130.295 23.4762 130.83 24.011C131.387 24.5236 131.666 25.1698 131.666 25.9498C131.666 26.7298 131.387 27.3872 130.83 27.922C130.295 28.4346 129.616 28.6909 128.791 28.6909ZM131.097 30.8971V49.4158H126.418V30.8971H131.097Z" fill="#050038"/>
<path d="M144.647 30.6296C146.853 30.6296 148.636 31.3316 149.995 32.7356C151.354 34.1172 152.034 36.0561 152.034 38.5519V49.4158H147.354V39.1872C147.354 37.7162 146.986 36.5909 146.251 35.8107C145.515 35.0085 144.513 34.6075 143.243 34.6075C141.95 34.6075 140.925 35.0085 140.167 35.8107C139.432 36.5909 139.064 37.7162 139.064 39.1872V49.4158H134.384V30.8971H139.064V33.2036C139.688 32.4013 140.479 31.7773 141.438 31.3316C142.418 30.8636 143.488 30.6296 144.647 30.6296Z" fill="#050038"/>
<path d="M172.362 39.7555C172.362 40.4239 172.318 41.0257 172.228 41.5605H158.69C158.801 42.8976 159.27 43.9449 160.094 44.7026C160.919 45.4604 161.933 45.8393 163.136 45.8393C164.874 45.8393 166.111 45.0925 166.847 43.5995H171.894C171.359 45.3824 170.334 46.853 168.819 48.0121C167.303 49.1484 165.443 49.7167 163.236 49.7167C161.454 49.7167 159.849 49.3268 158.423 48.547C157.019 47.7447 155.916 46.6191 155.113 45.1705C154.334 43.7219 153.943 42.0508 153.943 40.1564C153.943 38.24 154.334 36.5575 155.113 35.1089C155.893 33.6604 156.985 32.5461 158.389 31.7662C159.793 30.9862 161.409 30.5962 163.236 30.5962C164.997 30.5962 166.568 30.975 167.95 31.7327C169.353 32.4904 170.435 33.5712 171.192 34.9754C171.972 36.357 172.362 37.9501 172.362 39.7555ZM167.515 38.4184C167.493 37.2148 167.058 36.2566 166.211 35.5433C165.365 34.808 164.328 34.4405 163.103 34.4405C161.944 34.4405 160.963 34.797 160.161 35.5102C159.381 36.201 158.902 37.1703 158.723 38.4184H167.515Z" fill="#050038"/>
</g>
<g opacity="0.4">
<path d="M322.911 47.8318C322.415 47.4064 322.13 46.9606 322.104 46.4923L322.911 47.8318ZM322.911 47.8318L322.914 47.8339C323.453 48.2755 324.214 48.4861 325.174 48.4861H327.277H327.418V48.3456V48.0699V47.9294H327.277H326.221L325.855 47.8627L325.848 47.8614L325.841 47.861C325.622 47.8427 325.379 47.6946 325.115 47.3656C324.886 47.0303 324.763 46.5469 324.763 45.898V35.108C324.763 33.9574 324.469 33.0046 323.87 32.2618L323.869 32.2596C323.477 31.7941 322.862 31.45 322.044 31.2159C321.243 30.9573 320.205 30.8306 318.935 30.8306C317.635 30.8306 316.444 31.2803 315.364 32.1722C314.501 32.8668 313.851 33.6111 313.422 34.4061V31.1091V30.9685H313.281H310.868H310.727V31.1091V48.3456V48.4861H310.868H313.281H313.422V48.3456V36.1077C313.422 35.2468 313.973 34.2473 315.137 33.1055L315.139 33.1045C316.288 31.9552 317.575 31.3876 319.003 31.3876C319.7 31.3876 320.275 31.4998 320.732 31.7172C321.602 32.1854 322.069 33.274 322.069 35.0735V45.898V45.9022V45.9063L322.104 46.4919L322.911 47.8318ZM308.554 25.7935L308.684 25.8433L308.735 25.7145L308.873 25.3698L308.929 25.2313L308.787 25.1842C306.43 24.3984 304.105 24.0049 301.813 24.0049C299.542 24.0049 297.812 24.5377 296.65 25.6282C295.492 26.6917 294.916 28.0866 294.916 29.7991C294.916 31.9598 295.812 33.6358 297.598 34.8113C298.387 35.3443 299.255 35.8304 300.203 36.2698L300.206 36.2709C301.148 36.6848 302.08 37.0872 303 37.4781L303.001 37.4786C303.937 37.8672 304.794 38.2895 305.569 38.7454C307.278 39.7575 308.12 41.1505 308.12 42.9333C308.12 44.5664 307.474 45.7962 306.184 46.642C304.901 47.4748 303.343 47.8948 301.503 47.8948C300.254 47.8948 299.027 47.7134 297.822 47.3497C296.639 46.9627 295.679 46.4756 294.937 45.8909L294.814 45.7942L294.731 45.9272L294.558 46.2029L294.488 46.3159L294.597 46.3926C296.623 47.8135 299.066 48.5208 301.917 48.5208C303.444 48.5208 304.78 48.3473 305.923 47.9974L305.924 47.997C307.102 47.6204 308.101 46.9135 308.922 45.8822C309.748 44.8437 310.159 43.5939 310.159 42.1405C310.159 40.6787 309.915 39.4707 309.419 38.525C308.927 37.5646 308.28 36.8103 307.477 36.267C306.688 35.7333 305.819 35.2582 304.869 34.8414C303.924 34.4264 302.979 34.0575 302.033 33.7346C301.119 33.3917 300.275 33.0264 299.499 32.6387C297.789 31.7386 296.955 30.4831 296.955 28.8683C296.955 27.5302 297.455 26.4929 298.451 25.74C299.452 24.9833 300.855 24.5963 302.676 24.5963C304.516 24.5963 306.476 24.9941 308.554 25.7935ZM328.154 33.2504L328.154 33.2512C326.558 34.8702 325.769 37.1391 325.769 40.0377C325.769 42.9337 326.534 45.1044 328.09 46.5194C329.638 47.9256 331.638 48.6242 334.08 48.6242C336.549 48.6242 338.586 47.8189 340.178 46.2041C341.797 44.5852 342.598 42.316 342.598 39.4172C342.598 36.5211 341.833 34.3504 340.276 32.9355C338.729 31.5288 336.716 30.8306 334.252 30.8306C331.805 30.8306 329.768 31.6361 328.154 33.2504ZM330.09 33.6752L330.091 33.6744C331.217 32.1431 332.624 31.3876 334.321 31.3876C336.026 31.3876 337.387 32.0355 338.417 33.3338C339.445 34.6305 339.972 36.6494 339.972 39.4172C339.972 42.1569 339.401 44.2841 338.276 45.8142C337.151 47.3226 335.743 48.0674 334.045 48.0674C332.34 48.0674 330.979 47.4194 329.949 46.1211C328.921 44.8241 328.394 42.8165 328.394 40.0721C328.394 37.3085 328.966 35.182 330.09 33.6752ZM366.085 31.2165L365.983 31.3192L366.089 31.4185C366.42 31.7288 366.596 32.192 366.596 32.8327C366.596 33.4796 366.462 34.0291 366.2 34.4866L366.198 34.4919L366.195 34.4975L361.339 45.0143L356.182 31.0604L356.148 30.9685H356.05H353.637H353.435L353.505 31.1574L354.76 34.5848L349.962 45.0139L344.806 31.0604L344.771 30.9685H344.673H342.26H342.058L342.129 31.1581L348.541 48.3948L348.575 48.4861H348.672H349.017H349.108L349.145 48.404L355.071 35.3728L359.917 48.3948L359.951 48.4861H360.049H360.393H360.484L360.521 48.404L366.796 34.6147L366.797 34.6118C367.079 33.953 367.222 33.3022 367.222 32.6604C367.222 32.4886 367.198 32.3073 367.151 32.1172C367.122 31.9056 367.018 31.6813 366.854 31.4462C366.784 31.3297 366.718 31.2326 366.655 31.1569C366.593 31.0826 366.526 31.0192 366.454 30.9833L366.364 30.938L366.292 31.0096L366.085 31.2165Z" fill="#050038" stroke="#050038" stroke-width="0.281209"/>
<path fill-rule="evenodd" clip-rule="evenodd" d="M267.771 42.3489L267.756 54.1856L270.258 54.189L270.273 42.2969L274.838 53.2782L277.148 52.3177L272.615 41.4119L280.955 49.7738L282.727 48.0064L274.351 39.6089L285.306 44.1554L286.265 41.8442L275.308 37.2972H287.171V34.795H275.337L286.275 30.2776L285.319 27.9648L274.428 32.4629L282.803 24.1737L281.043 22.3953L272.564 30.7873L277.133 19.7673L274.822 18.8089L270.289 29.742L270.304 17.9065L267.802 17.9033L267.787 29.7964L263.221 18.8143L260.911 19.7747L265.444 30.6794L257.104 22.3184L255.332 24.0855L263.709 32.4832L252.754 27.9366L251.794 30.2477L262.751 34.795H250.888V37.2972H262.723L251.785 41.8148L252.74 44.1275L263.631 39.6297L255.256 47.9188L257.016 49.697L265.495 41.3054L260.926 52.3248L263.237 53.2832L267.771 42.3489Z" fill="#050038"/>
</g>
</svg>
