<svg width="787" height="73" viewBox="0 0 787 73" fill="none" xmlns="http://www.w3.org/2000/svg">
<g opacity="0.4">
<path d="M-1.43929 24.4634C-0.792285 23.4717 0.257715 22.7035 1.71371 22.6355L1.40971 46.1376V46.1393C1.40971 46.352 1.47571 46.5805 1.59671 46.8228C2.16271 47.9551 3.51271 48.4859 5.54871 48.4859H6.61771H6.75871V48.3454V48.0697V47.9292H6.61771H5.56171L5.19472 47.8625L5.18871 47.8612L5.18172 47.8608C4.96272 47.8425 4.71972 47.6944 4.45572 47.3654C4.22672 47.0301 4.10371 46.5467 4.10371 45.8978V22.525V22.3867L3.96571 22.3844L1.85872 22.35L1.71771 22.3477V22.3518C-0.641288 22.3943 -2.38628 22.949 -3.48228 24.0453C-4.60228 25.1419 -5.14429 26.9698 -5.14429 29.4886V30.9683H-5.72729H-5.86829V31.1089V31.6659V31.8065H-5.72729H-5.14429V48.3454V48.4859H-5.00328H-2.59029H-2.45029V48.3454V31.8065H0.132706H0.272705V31.6659V31.1089V30.9683H0.132706H-2.45029V29.4886C-2.45029 27.128 -2.10529 25.4628 -1.43929 24.4646V24.4634ZM16.9177 39.9188C16.4477 39.8811 15.9317 39.8624 15.3697 39.8624C14.7447 39.8624 14.0627 39.8971 13.3247 39.9662C11.8377 40.0585 10.6077 40.2317 9.63672 40.4875C8.66772 40.7429 7.9437 41.084 7.4817 41.5212C7.0377 41.9418 6.75172 42.3429 6.64972 42.7246C6.55472 43.079 6.50671 43.4131 6.50671 43.7263C6.50671 44.0094 6.53071 44.2926 6.57771 44.5754C6.77671 45.9103 7.29871 46.9287 8.15471 47.611C9.00871 48.292 10.1787 48.624 11.6457 48.624C12.9067 48.624 14.0037 48.3642 14.9307 47.8387C15.7217 47.39 16.3837 46.7511 16.9177 45.9253V46.1393C16.9177 46.5688 17.2207 47.0405 17.7517 47.5489C18.3697 48.1886 19.4887 48.4859 21.0577 48.4859H22.1257H22.2667V48.3454V48.0697V47.9292H22.1257H21.0697L20.7037 47.8625L20.6967 47.8612L20.6897 47.8608C20.4707 47.8425 20.2287 47.6944 19.9637 47.3654C19.7347 47.0301 19.6117 46.5467 19.6117 45.8978V34.3494C19.6117 33.5722 19.2957 32.8392 18.6807 32.1529C18.2767 31.7006 17.6687 31.3711 16.8717 31.1542C16.0737 30.9372 15.0777 30.8304 13.8867 30.8304C11.7507 30.8304 9.65071 31.3065 7.58871 32.2567L7.44872 32.3209L7.52571 32.4542L7.6627 32.6955L7.73271 32.817L7.85471 32.7481C8.36671 32.4584 9.18071 32.1633 10.3037 31.8653L10.3047 31.8648C11.4467 31.5452 12.4327 31.3874 13.2667 31.3874C14.1057 31.3874 14.7747 31.5011 15.2787 31.7205L15.2837 31.7225C15.7997 31.9244 16.1377 32.1638 16.3227 32.43C16.5227 32.7192 16.6777 33.0185 16.7887 33.328L16.7907 33.3339L16.7927 33.3396C16.9247 33.624 16.9577 33.8429 16.9217 34.0069C16.8977 34.1016 16.8837 34.186 16.8837 34.2546C16.8837 34.289 16.8867 34.3279 16.9007 34.3651C16.9047 34.3771 16.9107 34.3896 16.9177 34.402V39.9188ZM9.26971 44.5416V44.5395C9.24671 44.313 9.23572 44.1112 9.23572 43.9331C9.23572 42.9464 9.49371 42.1911 9.99171 41.6495C10.2337 41.3863 10.6257 41.1548 11.1837 40.9633C11.7397 40.7724 12.4497 40.6246 13.3167 40.5219C13.9317 40.4536 14.5477 40.4194 15.1627 40.4194C15.7577 40.4194 16.3427 40.4391 16.9177 40.4787V44.5128C16.8517 45.238 16.3567 46.0208 15.3807 46.8599C14.4407 47.6665 13.3807 48.0672 12.1977 48.0672C11.3127 48.0672 10.6397 47.7757 10.1597 47.2035C9.67471 46.6259 9.37171 45.7452 9.26971 44.5416ZM25.1977 22.4905V22.35H25.0567H22.6437H22.5037V22.4905V48.3454V48.4859H22.6437H25.0567H25.1977V48.3454V40.0901L25.9737 39.1986L32.2487 48.4246L32.2907 48.4859H32.3657H34.7787H35.0437L34.8947 48.2666L27.5447 37.4633L33.0917 31.2021L33.2987 30.9683H32.9857H32.6417H32.5787L32.5357 31.0156L25.1977 39.2879V22.4905ZM48.3007 47.1181L48.2467 46.9938L48.1207 47.0422C46.3467 47.7244 44.3187 48.0672 42.0347 48.0672C40.4487 48.0672 39.1687 47.4225 38.1827 46.1238C37.2217 44.8268 36.7287 42.7727 36.7287 39.934C36.7287 39.3171 36.7587 38.7205 36.8177 38.1442H48.9987H49.1387V38.0035V38.0029V38.0022V38.0015V38.0009V38.0002V37.9995V37.9988V37.9982V37.9975V37.9968V37.9961V37.9954V37.9948V37.9941V37.9934V37.9928V37.9921V37.9914V37.9907V37.9901V37.9894V37.9887V37.9881V37.9874V37.9867V37.986V37.9853V37.9847V37.984V37.9833V37.9827V37.982V37.9813V37.9806V37.98V37.9793V37.9786V37.978V37.9773V37.9766V37.9759V37.9753V37.9746V37.9739V37.9733V37.9726V37.9719V37.9712V37.9705V37.9699V37.9692V37.9685V37.9679V37.9672V37.9665V37.9658V37.9652V37.9645V37.9638V37.9631V37.9625V37.9618V37.9611V37.9605V37.9598V37.9591V37.9584V37.9577V37.9571V37.9564V37.9557V37.9551V37.9544V37.9537V37.953V37.9524V37.9517V37.951V37.9504V37.9497V37.949V37.9483V37.9476V37.947V37.9463V37.9456V37.945V37.9443V37.9436V37.9429V37.9423V37.9416V37.9409V37.9403V37.9396V37.9389V37.9382V37.9376V37.9369V37.9362V37.9356V37.9348V37.9342V37.9335V37.9328V37.9322V37.9315V37.9308V37.9301V37.9295V37.9288V37.9281V37.9275V37.9268V37.9261V37.9254V37.9248V37.9241V37.9234V37.9228V37.9221V37.9214V37.9207V37.92V37.9194V37.9187V37.918V37.9174V37.9167V37.916V37.9153V37.9147V37.914V37.9133V37.9127V37.9119V37.9113V37.9106V37.9099V37.9093V37.9086V37.9079V37.9072V37.9066V37.9059V37.9052V37.9046V37.9039V37.9032V37.9025V37.9019V37.9012V37.9005V37.8999V37.8992V37.8985V37.8978V37.8971V37.8965V37.8958V37.8951V37.8945V37.8938V37.8931V37.8924V37.8918V37.8911V37.8904V37.8898V37.8891V37.8884V37.8877V37.8871V37.8864V37.8857V37.885V37.8844V37.8837V37.883V37.8823V37.8817V37.881V37.8803V37.8797V37.879V37.8783V37.8776V37.877V37.8763V37.8756V37.875V37.8742V37.8736V37.8729V37.8722V37.8716V37.8709V37.8702V37.8695V37.8689V37.8682V37.8675V37.8669V37.8662V37.8655V37.8648V37.8642V37.8635V37.8628V37.8622V37.8615V37.8608V37.8601V37.8594V37.8588V37.8581V37.8574V37.8568V37.8561V37.8554V37.8547V37.8541V37.8534V37.8527V37.8521V37.8514V37.8507V37.85V37.8494V37.8487V37.848V37.8473V37.8466V37.846V37.8453V37.8446V37.844V37.8433V37.8426V37.8419V37.8413V37.8406V37.8399V37.8393V37.8386V37.8379V37.8372V37.8365V37.8359V37.8352V37.8345V37.8339V37.8332V37.8325V37.8318V37.8312V37.8305V37.8298V37.8292V37.8285V37.8278V37.8271V37.8265V37.8258V37.8251V37.8245V37.8238V37.8231V37.8224V37.8217V37.8211V37.8204V37.8197V37.819V37.8184V37.8177V37.817V37.8164V37.8157V37.815V37.8143V37.8137V37.813V37.8123V37.8117V37.811V37.8103V37.8096V37.8089V37.8083V37.8076V37.8069V37.8063V37.8056V37.8049V37.8042V37.8036V37.8029V37.8022V37.8016V37.8009V37.8002V37.7995V37.7988V37.7982V37.7975V37.7968V37.7962V37.7955V37.7948V37.7941V37.7935V37.7928V37.7921V37.7915V37.7908V37.7901V37.7894V37.7888V37.7881V37.7874V37.7868V37.786V37.7854V37.7847V37.784V37.7834V37.7827V37.782V37.7813V37.7807V37.78V37.7793V37.7787V37.778V37.7773V37.7766V37.776V37.7753V37.7746V37.7739V37.7733V37.7726V37.7719V37.7712V37.7706V37.7699V37.7692V37.7686V37.7679V37.7672V37.7665V37.7659V37.7652V37.7645V37.7639V37.7632V37.7625V37.7618V37.7611V37.7605V37.7598V37.7591V37.7584V37.7578V37.7571V37.7564V37.7558V37.7551V37.7544V37.7537V37.7531V37.7524V37.7517V37.7511V37.7504V37.7497V37.749V37.7483V37.7477V37.747V37.7463V37.7457V37.745V37.7443V37.7436V37.743V37.7423V37.7416V37.741V37.7403V37.7396V37.7389V37.7383V37.7376V37.7369V37.7362V37.7356V37.7349V37.7342V37.7335V37.7329V37.7322V37.7315V37.7308V37.7302V37.7295V37.7288V37.7282V37.7275V37.7268V37.7262V37.7254V37.7248V37.7241V37.7234V37.7228V37.7221V37.7214V37.7207V37.7201V37.7194V37.7187V37.7181V37.7174V37.7167V37.716V37.7154V37.7147V37.714V37.7134V37.7127V37.712V37.7113V37.7106V37.71V37.7093V37.7086V37.708V37.7073V37.7066V37.7059V37.7053V37.7046V37.7039V37.7033V37.7026V37.7019V37.7012V37.7006V37.6999V37.6992V37.6985V37.6978V37.6972V37.6965V37.6958V37.6952V37.6945V37.6938V37.6931V37.6925V37.6918V37.6911V37.6905V37.6898V37.6891V37.6884V37.6877V37.6871V37.6864V37.6857V37.6851V37.6844V37.6837V37.683V37.6824V37.6817V37.681V37.6804V37.6797V37.679V37.6783V37.6777V37.677V37.6763V37.6757V37.6749V37.6743V37.6736V37.6729V37.6723V37.6716V37.6709V37.6702V37.6696V37.6689V37.6682V37.6676V37.6669V37.6662V37.6655V37.6649V37.6642V37.6635V37.6629V37.6622V37.6615V37.6608V37.6601V37.6595V37.6588C49.1387 35.4245 48.4867 33.7145 47.1607 32.5544C45.8447 31.4035 44.2257 30.8304 42.3107 30.8304C39.9307 30.8304 37.9627 31.6369 36.4177 33.2524C34.8687 34.8717 34.1027 37.1401 34.1027 40.0375C34.1027 42.9318 34.8327 45.1017 36.3187 46.5167C37.7967 47.9246 39.7067 48.624 42.0347 48.624C44.3707 48.624 46.4677 48.2657 48.3257 47.5459L48.4607 47.4934L48.4037 47.3595L48.3007 47.1181ZM45.2677 32.9192C46.0497 33.9186 46.4717 35.4666 46.5117 37.5872H36.8877C37.1727 35.6602 37.8007 34.1563 38.7617 33.0639C39.7737 31.939 40.9097 31.3874 42.1727 31.3874C43.4377 31.3874 44.4667 31.8951 45.2677 32.9192Z" fill="#050038" stroke="#050038" stroke-width="0.281209"/>
<path d="M52.1797 22.1287V23.0394H51.1447V25.8102H50.1617V23.0394H49.1257V22.1287H52.1797Z" fill="#050038"/>
<path d="M56.2148 22.0735V25.8268H55.2318V24.0054L54.5118 24.8609H54.2178L53.4978 24.0054V25.8268H52.5148V22.0735H52.8618L54.3648 23.6742L55.8678 22.0735H56.2148Z" fill="#050038"/>
</g>
<g opacity="0.4">
<path d="M188.532 25.8994H192.844V49.1164H188.532V25.8994Z" fill="#050038"/>
<path d="M207.117 31.2063C209.35 31.2063 211.141 31.8586 212.49 33.1632C213.839 34.4678 214.513 36.4025 214.513 38.9674V49.1165H210.367V39.4983C210.367 37.9503 210.002 36.7895 209.273 36.0156C208.543 35.2196 207.504 34.8215 206.155 34.8215C204.629 34.8215 203.424 35.2859 202.54 36.2146C201.655 37.1212 201.213 38.437 201.213 40.1614V49.1165H197.067V31.4053H201.014V33.6939C201.699 32.8757 202.562 32.2566 203.601 31.8365C204.64 31.4164 205.812 31.2063 207.117 31.2063Z" fill="#050038"/>
<path d="M234.374 31.4053L226.778 49.1165H222.5L214.905 31.4053H219.216L224.722 44.5395L230.394 31.4053H234.374Z" fill="#050038"/>
<path d="M251.471 40.3604C251.471 40.6481 251.449 41.0568 251.405 41.5877H237.507C237.751 42.8922 238.381 43.9315 239.398 44.7055C240.437 45.4574 241.72 45.8332 243.245 45.8332C245.191 45.8332 246.794 45.1918 248.055 43.9094L250.277 46.4633C249.481 47.4142 248.475 48.1327 247.259 48.619C246.042 49.1057 244.672 49.3488 243.146 49.3488C241.2 49.3488 239.487 48.9618 238.005 48.1882C236.524 47.4142 235.374 46.3415 234.556 44.9707C233.759 43.5778 233.362 42.0077 233.362 40.2611C233.362 38.5362 233.749 36.9885 234.523 35.6176C235.318 34.2245 236.413 33.1411 237.806 32.3672C239.199 31.5933 240.769 31.2063 242.516 31.2063C244.24 31.2063 245.777 31.5933 247.126 32.3672C248.497 33.119 249.558 34.1914 250.31 35.5844C251.084 36.9553 251.471 38.5475 251.471 40.3604ZM242.516 34.5231C241.189 34.5231 240.061 34.921 239.133 35.7171C238.226 36.491 237.673 37.5303 237.474 38.8348H247.524C247.347 37.5524 246.805 36.5131 245.899 35.7171C244.992 34.921 243.865 34.5231 242.516 34.5231Z" fill="#050038"/>
<path d="M257.742 33.9923C258.936 32.135 261.037 31.5379 264.044 31.5379V34.8547C263.69 34.7883 263.37 34.7552 263.082 34.7552C261.468 34.7552 260.208 35.5291 259.301 36.4799C258.395 37.4085 257.941 38.7572 257.941 40.5263V49.1165H253.795V31.4053H257.742V33.9923Z" fill="#050038"/>
<path d="M278.031 48.1547C277.544 48.5526 276.948 48.8512 276.24 49.0501C275.555 49.2495 274.825 49.3487 274.051 49.3487C272.105 49.3487 270.602 48.8403 269.54 47.8232C268.479 46.806 267.948 45.3243 267.948 43.3788V34.8546H265.03V31.5379H267.948V27.4915H272.094V31.5379H276.837V34.8546H272.094V43.2791C272.094 44.1416 272.304 44.8046 272.724 45.2692C273.144 45.7113 273.752 45.9327 274.548 45.9327C275.477 45.9327 276.251 45.6892 276.87 45.2029L278.031 48.1547Z" fill="#050038"/>
<path fill-rule="evenodd" clip-rule="evenodd" d="M177.689 37.5766C177.689 49.3234 168.167 58.8457 156.42 58.8457C144.673 58.8457 135.151 49.3234 135.151 37.5766C135.151 25.8301 144.673 16.3076 156.42 16.3076C168.167 16.3076 177.689 25.8301 177.689 37.5766ZM171.005 37.5766C171.005 45.6313 164.475 52.1609 156.42 52.1609C155.862 52.1609 155.311 52.1297 154.768 52.0688C162.098 51.2985 167.811 45.0988 167.811 37.5645C167.811 30.0684 162.155 23.893 154.878 23.0728C155.385 23.0195 155.899 22.9922 156.42 22.9922C164.475 22.9922 171.005 29.5219 171.005 37.5766ZM151.71 47.8496C156.517 47.0005 160.173 42.7242 160.173 37.5766C160.173 32.4289 156.517 28.1526 151.71 27.3038C152.292 27.2031 152.89 27.1506 153.501 27.1506C159.259 27.1506 163.927 31.8185 163.927 37.5766C163.927 43.3347 159.259 48.0026 153.501 48.0026C152.89 48.0026 152.292 47.9501 151.71 47.8496Z" fill="#050038"/>
</g>
<g opacity="0.4">
<path d="M433.542 27.6821V50.8274H427.904V41.2989H419.134V50.8274H413.496V27.6821H419.134V36.749H427.904V27.6821H433.542Z" fill="#050038"/>
<path d="M439.13 30.5175C438.14 30.5175 437.327 30.2318 436.69 29.6603C436.074 29.0668 435.767 28.3414 435.767 27.4842C435.767 26.605 436.074 25.8797 436.69 25.3081C437.327 24.7147 438.14 24.418 439.13 24.418C440.097 24.418 440.888 24.7147 441.503 25.3081C442.141 25.8797 442.46 26.605 442.46 27.4842C442.46 28.3414 442.141 29.0668 441.503 29.6603C440.888 30.2318 440.097 30.5175 439.13 30.5175ZM441.932 32.4298V50.8273H436.294V32.4298H441.932Z" fill="#050038"/>
<path d="M454.952 46.0468V50.8273H452.084C450.04 50.8273 448.446 50.3327 447.303 49.3439C446.16 48.3326 445.589 46.6953 445.589 44.4312V37.1117H443.347V32.4298H445.589V27.9458H451.227V32.4298H454.919V37.1117H451.227V44.4971C451.227 45.0468 451.359 45.4421 451.622 45.684C451.886 45.9259 452.326 46.0468 452.941 46.0468H454.952Z" fill="#050038"/>
<path d="M474.117 41.332C474.117 41.8595 474.084 42.4092 474.018 42.9805H461.259C461.347 44.1236 461.709 45.0027 462.347 45.6183C463.006 46.2117 463.808 46.5087 464.753 46.5087C466.16 46.5087 467.138 45.9148 467.688 44.7279H473.688C473.381 45.9369 472.82 47.025 472.007 47.9921C471.216 48.9592 470.216 49.7178 469.007 50.267C467.798 50.8167 466.446 51.0915 464.951 51.0915C463.149 51.0915 461.544 50.7066 460.138 49.9376C458.731 49.1681 457.632 48.0692 456.84 46.6405C456.049 45.2117 455.654 43.541 455.654 41.6289C455.654 39.7163 456.038 38.046 456.808 36.6173C457.599 35.1885 458.698 34.0895 460.105 33.3202C461.511 32.5509 463.127 32.1663 464.951 32.1663C466.732 32.1663 468.314 32.5399 469.699 33.2873C471.084 34.0346 472.161 35.1006 472.93 36.4854C473.721 37.8702 474.117 39.4857 474.117 41.332ZM468.347 39.8485C468.347 38.8813 468.018 38.1119 467.358 37.5404C466.699 36.969 465.874 36.6832 464.886 36.6832C463.94 36.6832 463.138 36.958 462.478 37.5075C461.841 38.057 461.445 38.8373 461.292 39.8485H468.347Z" fill="#050038"/>
<path d="M474.652 41.6289C474.652 39.7163 475.036 38.046 475.806 36.6173C476.597 35.1885 477.685 34.0895 479.07 33.3202C480.476 32.5509 482.081 32.1663 483.883 32.1663C486.191 32.1663 488.114 32.7707 489.653 33.9796C491.214 35.1885 492.236 36.892 492.719 39.0901H486.719C486.213 37.6833 485.235 36.9799 483.784 36.9799C482.751 36.9799 481.927 37.3866 481.312 38.1999C480.696 38.9912 480.388 40.1342 480.388 41.6289C480.388 43.1236 480.696 44.2775 481.312 45.0907C481.927 45.8819 482.751 46.2776 483.784 46.2776C485.235 46.2776 486.213 45.5745 486.719 44.1674H492.719C492.236 46.3218 491.214 48.0142 489.653 49.2449C488.092 50.476 486.169 51.0915 483.883 51.0915C482.081 51.0915 480.476 50.7066 479.07 49.9376C477.685 49.1681 476.597 48.0692 475.806 46.6405C475.036 45.2117 474.652 43.541 474.652 41.6289Z" fill="#050038"/>
<path d="M505.725 32.2321C507.835 32.2321 509.528 32.9354 510.803 34.3421C512.077 35.7269 512.715 37.6392 512.715 40.079V50.8274H507.11V40.8372C507.11 39.6065 506.791 38.6503 506.154 37.9689C505.516 37.2875 504.659 36.9469 503.582 36.9469C502.505 36.9469 501.648 37.2875 501.01 37.9689C500.373 38.6503 500.054 39.6065 500.054 40.8372V50.8274H494.416V26.4292H500.054V34.9027C500.626 34.0894 501.406 33.441 502.395 32.9574C503.384 32.4738 504.494 32.2321 505.725 32.2321Z" fill="#050038"/>
<path d="M384.304 38.7292V18.7156H390.976V29.0035C392.141 28.554 393.407 28.3075 394.73 28.3075C400.488 28.3075 405.156 32.9754 405.156 38.7335V50.8275H398.483V38.7335C398.483 36.6606 396.803 34.9801 394.73 34.9801C392.658 34.9801 390.978 36.6591 390.976 38.7307C390.976 38.7316 390.976 38.7326 390.976 38.7335V50.8275H384.304V38.7335C384.304 38.7321 384.304 38.7306 384.304 38.7292Z" fill="#050038"/>
<path d="M398.482 25.3882V18.7156H405.155V25.3882H398.482Z" fill="#050038"/>
</g>
<g opacity="0.4">
<path d="M627.596 19.9167L609.104 42.1077H625.747L623.897 56.9013L642.39 34.7106H625.747L627.596 19.9167Z" fill="#050038"/>
<path d="M668.57 35.3849V42.2303H658.697V51.6061H650.939V23.8101H670.645V30.6554H658.697V35.3849H668.57Z" fill="#050038"/>
<path d="M681.464 23.8101V51.6061H674.328V23.8101H681.464Z" fill="#050038"/>
<path d="M693.239 29.8257C694.345 29.8257 695.423 30.0746 696.474 30.5724C697.553 31.0426 698.438 31.6511 699.13 32.3979V30.448H706.266V51.6062H699.13V48.08C698.604 49.2416 697.802 50.2234 696.724 51.0256C695.645 51.8277 694.345 52.2286 692.824 52.2286C691.247 52.2286 689.767 51.8277 688.385 51.0256C687.002 50.2234 685.867 48.9927 684.983 47.3332C684.125 45.6459 683.696 43.5302 683.696 40.9856C683.696 38.607 684.125 36.588 684.983 34.9285C685.867 33.2691 687.03 32.0106 688.468 31.1532C689.934 30.2682 691.524 29.8257 693.239 29.8257ZM694.732 36.7955C693.709 36.7955 692.851 37.2103 692.16 38.0401C691.496 38.8698 691.164 39.8517 691.164 40.9856C691.164 42.1198 691.51 43.074 692.201 43.8481C692.893 44.6226 693.806 45.01 694.94 45.01C695.548 45.01 696.17 44.8576 696.807 44.5535C697.442 44.2217 697.982 43.7375 698.424 43.1016C698.895 42.4377 699.13 41.5941 699.13 40.5708V38.5379C698.521 38.0401 697.83 37.6252 697.055 37.2933C696.309 36.9614 695.534 36.7955 694.732 36.7955Z" fill="#050038"/>
<path d="M717.334 29.8257C718.717 29.8257 719.989 30.0331 721.151 30.448C722.34 30.8352 723.294 31.3745 724.013 32.066V37.6667C723.294 37.2242 722.478 36.8093 721.566 36.4221C720.653 36.0072 719.671 35.7998 718.62 35.7998C717.956 35.7998 717.362 35.9381 716.836 36.2147C716.338 36.4636 716.089 36.8646 716.089 37.4178C716.089 37.805 716.242 38.0954 716.546 38.289C716.85 38.4826 717.445 38.69 718.33 38.9113L719.616 39.2432C723.294 40.1836 725.133 42.1612 725.133 45.1759C725.133 46.5587 724.719 47.7893 723.889 48.8683C723.087 49.9193 722.022 50.7487 720.695 51.3573C719.394 51.9383 717.984 52.2286 716.463 52.2286C714.886 52.2286 713.42 52.0074 712.065 51.5647C710.71 51.0947 709.548 50.5275 708.58 49.864V44.3047C709.576 44.9129 710.696 45.4247 711.941 45.8395C713.213 46.2545 714.347 46.4619 715.343 46.4619C716.145 46.4619 716.726 46.3651 717.085 46.1716C717.472 45.9781 717.666 45.6321 717.666 45.1344C717.666 44.747 717.445 44.4567 717.002 44.2632C716.559 44.042 715.924 43.7928 715.094 43.5163L712.978 42.8524C711.429 42.3824 710.295 41.6494 709.576 40.6537C708.857 39.6304 708.497 38.3858 708.497 36.9199C708.497 35.4541 708.884 34.1956 709.659 33.1446C710.433 32.0936 711.484 31.2777 712.812 30.6969C714.167 30.1161 715.674 29.8257 717.334 29.8257Z" fill="#050038"/>
<path d="M739.853 29.8257C742.011 29.8257 743.767 30.5586 745.122 32.0245C746.505 33.4903 747.196 35.6615 747.196 38.5379V51.6062H740.061L740.019 39.6581C740.019 38.6071 739.729 37.8741 739.148 37.4592C738.567 37.0167 737.917 36.7955 737.198 36.7955C736.424 36.7955 735.774 37.0029 735.248 37.4178C734.723 37.805 734.266 38.2752 733.879 38.8283V51.6062H726.743V23.8101H733.879V33.1861C734.543 32.2734 735.345 31.4852 736.285 30.8214C737.253 30.1576 738.443 29.8257 739.853 29.8257Z" fill="#050038"/>
<path d="M746.837 23.9719V24.8546H745.775V27.5402H744.766V24.8546H743.703V23.9719H746.837Z" fill="#050038"/>
<path d="M750.978 23.9185V27.5563H749.97V25.7909L749.231 26.6201H748.929L748.19 25.7909V27.5563H747.181V23.9185H747.537L749.08 25.4699L750.622 23.9185H750.978Z" fill="#050038"/>
</g>
</svg>
