<svg width="53" height="53" viewBox="0 0 53 53" fill="none" xmlns="http://www.w3.org/2000/svg">
<g clip-path="url(#clip0_2303_726)">
<path d="M36.9 0.078125H16.1C7.48436 0.078125 0.5 7.06248 0.5 15.6781V36.4781C0.5 45.0938 7.48436 52.0781 16.1 52.0781H36.9C45.5156 52.0781 52.5 45.0938 52.5 36.4781V15.6781C52.5 7.06248 45.5156 0.078125 36.9 0.078125Z" fill="#00F59B"/>
<path fill-rule="evenodd" clip-rule="evenodd" d="M14.2222 21.167C14.2222 18.4547 16.4209 16.2559 19.1332 16.2559H33.8666C36.5789 16.2559 38.7777 18.4547 38.7777 21.167V30.9892C38.7777 33.7015 36.5789 35.9003 33.8666 35.9003H19.1332C16.4209 35.9003 14.2222 33.7015 14.2222 30.9892V21.167ZM19.1332 18.7115C17.7771 18.7115 16.6777 19.8108 16.6777 21.167V30.9892C16.6777 32.3454 17.7771 33.4448 19.1332 33.4448H33.8666C35.2227 33.4448 36.3222 32.3454 36.3222 30.9892V21.167C36.3222 19.8108 35.2227 18.7115 33.8666 18.7115H19.1332Z" fill="#151531"/>
<path fill-rule="evenodd" clip-rule="evenodd" d="M19.4024 21.6279C19.826 21.0984 20.5986 21.0125 21.1281 21.4362L26.5001 25.7336L31.8719 21.4362C32.4015 21.0125 33.1741 21.0984 33.5976 21.6279C34.0213 22.1574 33.9354 22.93 33.4059 23.3536L26.5001 28.8783L19.5941 23.3536C19.0647 22.93 18.9788 22.1574 19.4024 21.6279Z" fill="#151531"/>
</g>
<g clip-path="url(#clip1_2303_726)">
<path d="M36.9 0.078125H16.1C7.48436 0.078125 0.5 7.06248 0.5 15.6781V36.4781C0.5 45.0938 7.48436 52.0781 16.1 52.0781H36.9C45.5156 52.0781 52.5 45.0938 52.5 36.4781V15.6781C52.5 7.06248 45.5156 0.078125 36.9 0.078125Z" fill="#9D0AFF"/>
<path fill-rule="evenodd" clip-rule="evenodd" d="M14.2222 21.167C14.2222 18.4547 16.4209 16.2559 19.1332 16.2559H33.8666C36.5789 16.2559 38.7777 18.4547 38.7777 21.167V30.9892C38.7777 33.7015 36.5789 35.9003 33.8666 35.9003H19.1332C16.4209 35.9003 14.2222 33.7015 14.2222 30.9892V21.167ZM19.1332 18.7115C17.7771 18.7115 16.6777 19.8108 16.6777 21.167V30.9892C16.6777 32.3454 17.7771 33.4448 19.1332 33.4448H33.8666C35.2227 33.4448 36.3222 32.3454 36.3222 30.9892V21.167C36.3222 19.8108 35.2227 18.7115 33.8666 18.7115H19.1332Z" fill="#FFFAFF"/>
<path fill-rule="evenodd" clip-rule="evenodd" d="M19.4024 21.6279C19.826 21.0984 20.5986 21.0125 21.1281 21.4362L26.5001 25.7336L31.8719 21.4362C32.4015 21.0125 33.1741 21.0984 33.5976 21.6279C34.0213 22.1574 33.9354 22.93 33.4059 23.3536L26.5001 28.8783L19.5941 23.3536C19.0647 22.93 18.9788 22.1574 19.4024 21.6279Z" fill="#FFFAFF"/>
</g>
<defs>
<clipPath id="clip0_2303_726">
<rect width="52" height="52" fill="white" transform="translate(0.5 0.078125)"/>
</clipPath>
<clipPath id="clip1_2303_726">
<rect width="52" height="52" fill="white" transform="translate(0.5 0.078125)"/>
</clipPath>
</defs>
</svg>
