<svg width="56" height="57" viewBox="0 0 56 57" fill="none" xmlns="http://www.w3.org/2000/svg">
<g clip-path="url(#clip0_2316_240)">
<path d="M39.2 0.546875H16.8C7.52162 0.546875 0 8.06849 0 17.3469V39.7469C0 49.0253 7.52162 56.5469 16.8 56.5469H39.2C48.4784 56.5469 56 49.0253 56 39.7469V17.3469C56 8.06849 48.4784 0.546875 39.2 0.546875Z" fill="#00F59B"/>
<path fill-rule="evenodd" clip-rule="evenodd" d="M14.7781 23.2581C14.7781 20.3371 17.146 17.9692 20.067 17.9692H35.9337C38.8546 17.9692 41.2226 20.3371 41.2226 23.2581V33.8359C41.2226 36.7569 38.8546 39.1247 35.9337 39.1247H20.067C17.146 39.1247 14.7781 36.7569 14.7781 33.8359V23.2581ZM20.067 20.6137C18.6065 20.6137 17.4226 21.7976 17.4226 23.2581V33.8359C17.4226 35.2964 18.6065 36.4803 20.067 36.4803H35.9337C37.3941 36.4803 38.5781 35.2964 38.5781 33.8359V23.2581C38.5781 21.7976 37.3941 20.6137 35.9337 20.6137H20.067Z" fill="#151531"/>
<path fill-rule="evenodd" clip-rule="evenodd" d="M39.9001 27.2247H16.1001V24.5803H39.9001V27.2247Z" fill="#151531"/>
<path fill-rule="evenodd" clip-rule="evenodd" d="M29.3219 32.5134C29.3219 31.7832 29.9138 31.1912 30.6441 31.1912H34.6107C35.341 31.1912 35.933 31.7832 35.933 32.5134C35.933 33.2437 35.341 33.8357 34.6107 33.8357H30.6441C29.9138 33.8357 29.3219 33.2437 29.3219 32.5134Z" fill="#151531"/>
</g>
<g clip-path="url(#clip1_2316_240)">
<path d="M39.2 0.546875H16.8C7.52162 0.546875 0 8.06849 0 17.3469V39.7469C0 49.0253 7.52162 56.5469 16.8 56.5469H39.2C48.4784 56.5469 56 49.0253 56 39.7469V17.3469C56 8.06849 48.4784 0.546875 39.2 0.546875Z" fill="#9D0AFF"/>
<path fill-rule="evenodd" clip-rule="evenodd" d="M14.7781 23.2581C14.7781 20.3371 17.146 17.9692 20.067 17.9692H35.9337C38.8546 17.9692 41.2226 20.3371 41.2226 23.2581V33.8359C41.2226 36.7569 38.8546 39.1247 35.9337 39.1247H20.067C17.146 39.1247 14.7781 36.7569 14.7781 33.8359V23.2581ZM20.067 20.6137C18.6065 20.6137 17.4226 21.7976 17.4226 23.2581V33.8359C17.4226 35.2964 18.6065 36.4803 20.067 36.4803H35.9337C37.3941 36.4803 38.5781 35.2964 38.5781 33.8359V23.2581C38.5781 21.7976 37.3941 20.6137 35.9337 20.6137H20.067Z" fill="#FFFAFF"/>
<path fill-rule="evenodd" clip-rule="evenodd" d="M39.9001 27.2247H16.1001V24.5803H39.9001V27.2247Z" fill="#FFFAFF"/>
<path fill-rule="evenodd" clip-rule="evenodd" d="M29.3219 32.5134C29.3219 31.7832 29.9138 31.1912 30.6441 31.1912H34.6107C35.341 31.1912 35.933 31.7832 35.933 32.5134C35.933 33.2437 35.341 33.8357 34.6107 33.8357H30.6441C29.9138 33.8357 29.3219 33.2437 29.3219 32.5134Z" fill="#FFFAFF"/>
</g>
<defs>
<clipPath id="clip0_2316_240">
<rect width="56" height="56" fill="white" transform="translate(0 0.546875)"/>
</clipPath>
<clipPath id="clip1_2316_240">
<rect width="56" height="56" fill="white" transform="translate(0 0.546875)"/>
</clipPath>
</defs>
</svg>
