<svg width="53" height="53" viewBox="0 0 53 53" fill="none" xmlns="http://www.w3.org/2000/svg">
<g clip-path="url(#clip0_2303_742)">
<path d="M36.9 0.0625H16.1C7.48436 0.0625 0.5 7.04686 0.5 15.6625V36.4625C0.5 45.0781 7.48436 52.0625 16.1 52.0625H36.9C45.5156 52.0625 52.5 45.0781 52.5 36.4625V15.6625C52.5 7.04686 45.5156 0.0625 36.9 0.0625Z" fill="#00F59B"/>
<path fill-rule="evenodd" clip-rule="evenodd" d="M14.2222 21.1514C14.2222 17.761 16.9706 15.0125 20.361 15.0125H32.6388C36.0292 15.0125 38.7777 17.761 38.7777 21.1514V32.2014C38.7777 35.5919 36.0292 38.3403 32.6388 38.3403H20.361C16.9706 38.3403 14.2222 35.5918 14.2222 32.2014V21.1514ZM20.361 17.468C18.3268 17.468 16.6777 19.1171 16.6777 21.1514V32.2014C16.6777 34.2356 18.3268 35.8847 20.361 35.8847H32.6388C34.6731 35.8847 36.3222 34.2356 36.3222 32.2014V21.1514C36.3222 19.1171 34.6731 17.468 32.6388 17.468H20.361Z" fill="#151531"/>
<path fill-rule="evenodd" clip-rule="evenodd" d="M21.589 13.7848C22.267 13.7848 22.8168 14.3344 22.8168 15.0125V18.6958C22.8168 19.3739 22.267 19.9237 21.589 19.9237C20.9109 19.9237 20.3611 19.3739 20.3611 18.6958V15.0125C20.3611 14.3344 20.9109 13.7848 21.589 13.7848Z" fill="#151531"/>
<path fill-rule="evenodd" clip-rule="evenodd" d="M19.1334 23.607C19.1334 22.9289 19.6831 22.3792 20.3612 22.3792H32.6389C33.317 22.3792 33.8667 22.9289 33.8667 23.607C33.8667 24.285 33.317 24.8347 32.6389 24.8347H20.3612C19.6831 24.8347 19.1334 24.285 19.1334 23.607Z" fill="#151531"/>
<path fill-rule="evenodd" clip-rule="evenodd" d="M30.1833 32.2014C30.1833 31.5233 30.7331 30.9736 31.4112 30.9736H32.6389C33.317 30.9736 33.8667 31.5233 33.8667 32.2014C33.8667 32.8795 33.317 33.4292 32.6389 33.4292H31.4112C30.7331 33.4292 30.1833 32.8795 30.1833 32.2014Z" fill="#151531"/>
<path fill-rule="evenodd" clip-rule="evenodd" d="M31.4112 13.7848C32.0892 13.7848 32.6389 14.3344 32.6389 15.0125V18.6958C32.6389 19.3739 32.0892 19.9237 31.4112 19.9237C30.7331 19.9237 30.1833 19.3739 30.1833 18.6958V15.0125C30.1833 14.3344 30.7331 13.7848 31.4112 13.7848Z" fill="#151531"/>
</g>
<g clip-path="url(#clip1_2303_742)">
<path d="M36.9 0.0625H16.1C7.48436 0.0625 0.5 7.04686 0.5 15.6625V36.4625C0.5 45.0781 7.48436 52.0625 16.1 52.0625H36.9C45.5156 52.0625 52.5 45.0781 52.5 36.4625V15.6625C52.5 7.04686 45.5156 0.0625 36.9 0.0625Z" fill="#9D0AFF"/>
<path fill-rule="evenodd" clip-rule="evenodd" d="M14.2222 21.1514C14.2222 17.761 16.9706 15.0125 20.361 15.0125H32.6388C36.0292 15.0125 38.7777 17.761 38.7777 21.1514V32.2014C38.7777 35.5919 36.0292 38.3403 32.6388 38.3403H20.361C16.9706 38.3403 14.2222 35.5918 14.2222 32.2014V21.1514ZM20.361 17.468C18.3268 17.468 16.6777 19.1171 16.6777 21.1514V32.2014C16.6777 34.2356 18.3268 35.8847 20.361 35.8847H32.6388C34.6731 35.8847 36.3222 34.2356 36.3222 32.2014V21.1514C36.3222 19.1171 34.6731 17.468 32.6388 17.468H20.361Z" fill="#FFFAFF"/>
<path fill-rule="evenodd" clip-rule="evenodd" d="M21.589 13.7848C22.267 13.7848 22.8168 14.3344 22.8168 15.0125V18.6958C22.8168 19.3739 22.267 19.9237 21.589 19.9237C20.9109 19.9237 20.3611 19.3739 20.3611 18.6958V15.0125C20.3611 14.3344 20.9109 13.7848 21.589 13.7848Z" fill="#FFFAFF"/>
<path fill-rule="evenodd" clip-rule="evenodd" d="M19.1334 23.607C19.1334 22.9289 19.6831 22.3792 20.3612 22.3792H32.6389C33.317 22.3792 33.8667 22.9289 33.8667 23.607C33.8667 24.285 33.317 24.8347 32.6389 24.8347H20.3612C19.6831 24.8347 19.1334 24.285 19.1334 23.607Z" fill="#FFFAFF"/>
<path fill-rule="evenodd" clip-rule="evenodd" d="M30.1833 32.2014C30.1833 31.5233 30.7331 30.9736 31.4112 30.9736H32.6389C33.317 30.9736 33.8667 31.5233 33.8667 32.2014C33.8667 32.8795 33.317 33.4292 32.6389 33.4292H31.4112C30.7331 33.4292 30.1833 32.8795 30.1833 32.2014Z" fill="#FFFAFF"/>
<path fill-rule="evenodd" clip-rule="evenodd" d="M31.4112 13.7848C32.0892 13.7848 32.6389 14.3344 32.6389 15.0125V18.6958C32.6389 19.3739 32.0892 19.9237 31.4112 19.9237C30.7331 19.9237 30.1833 19.3739 30.1833 18.6958V15.0125C30.1833 14.3344 30.7331 13.7848 31.4112 13.7848Z" fill="#FFFAFF"/>
</g>
<defs>
<clipPath id="clip0_2303_742">
<rect width="52" height="52" fill="white" transform="translate(0.5 0.0625)"/>
</clipPath>
<clipPath id="clip1_2303_742">
<rect width="52" height="52" fill="white" transform="translate(0.5 0.0625)"/>
</clipPath>
</defs>
</svg>
