<svg width="53" height="53" viewBox="0 0 53 53" fill="none" xmlns="http://www.w3.org/2000/svg">
<g clip-path="url(#clip0_2303_764)">
<path d="M36.9 0.046875H16.1C7.48436 0.046875 0.5 7.03123 0.5 15.6469V36.4469C0.5 45.0625 7.48436 52.0469 16.1 52.0469H36.9C45.5156 52.0469 52.5 45.0625 52.5 36.4469V15.6469C52.5 7.03123 45.5156 0.046875 36.9 0.046875Z" fill="#00F59B"/>
<path fill-rule="evenodd" clip-rule="evenodd" d="M26.9332 16.3691C24.8392 16.3691 23.1416 18.0667 23.1416 20.1608C23.1416 22.2548 24.8392 23.9524 26.9332 23.9524C29.0273 23.9524 30.7249 22.2548 30.7249 20.1608C30.7249 18.0667 29.0273 16.3691 26.9332 16.3691ZM20.6138 20.1608C20.6138 16.6706 23.4431 13.8413 26.9332 13.8413C30.4234 13.8413 33.2527 16.6706 33.2527 20.1608C33.2527 23.6509 30.4234 26.4803 26.9332 26.4803C23.4431 26.4803 20.6138 23.6509 20.6138 20.1608Z" fill="#151531"/>
<path fill-rule="evenodd" clip-rule="evenodd" d="M26.9333 30.2719C22.5825 30.2719 20.2954 31.8136 19.1543 33.6814C18.7572 34.3314 18.8571 34.9447 19.3419 35.508C19.8707 36.1225 20.827 36.5913 21.8778 36.5913H31.9889C33.0398 36.5913 33.996 36.1225 34.5248 35.508C35.0096 34.9447 35.1095 34.3314 34.7124 33.6814C33.5714 31.8136 31.2843 30.2719 26.9333 30.2719ZM16.9972 32.3636C18.7025 29.5719 21.9243 27.7441 26.9333 27.7441C31.9424 27.7441 35.1642 29.5719 36.8696 32.3636C37.928 34.0964 37.5229 35.8995 36.4408 37.1568C35.4027 38.3631 33.7303 39.1191 31.9889 39.1191H21.8778C20.1365 39.1191 18.464 38.3631 17.4259 37.1568C16.3439 35.8995 15.9387 34.0964 16.9972 32.3636Z" fill="#151531"/>
</g>
<g clip-path="url(#clip1_2303_764)">
<path d="M36.9 0.046875H16.1C7.48436 0.046875 0.5 7.03123 0.5 15.6469V36.4469C0.5 45.0625 7.48436 52.0469 16.1 52.0469H36.9C45.5156 52.0469 52.5 45.0625 52.5 36.4469V15.6469C52.5 7.03123 45.5156 0.046875 36.9 0.046875Z" fill="#9D0AFF"/>
<path fill-rule="evenodd" clip-rule="evenodd" d="M26.9332 16.3691C24.8392 16.3691 23.1416 18.0667 23.1416 20.1608C23.1416 22.2548 24.8392 23.9524 26.9332 23.9524C29.0273 23.9524 30.7249 22.2548 30.7249 20.1608C30.7249 18.0667 29.0273 16.3691 26.9332 16.3691ZM20.6138 20.1608C20.6138 16.6706 23.4431 13.8413 26.9332 13.8413C30.4234 13.8413 33.2527 16.6706 33.2527 20.1608C33.2527 23.6509 30.4234 26.4803 26.9332 26.4803C23.4431 26.4803 20.6138 23.6509 20.6138 20.1608Z" fill="#FFFAFF"/>
<path fill-rule="evenodd" clip-rule="evenodd" d="M26.9333 30.2719C22.5825 30.2719 20.2954 31.8136 19.1543 33.6814C18.7572 34.3314 18.8571 34.9447 19.3419 35.508C19.8707 36.1225 20.827 36.5913 21.8778 36.5913H31.9889C33.0398 36.5913 33.996 36.1225 34.5248 35.508C35.0096 34.9447 35.1095 34.3314 34.7124 33.6814C33.5714 31.8136 31.2843 30.2719 26.9333 30.2719ZM16.9972 32.3636C18.7025 29.5719 21.9243 27.7441 26.9333 27.7441C31.9424 27.7441 35.1642 29.5719 36.8696 32.3636C37.928 34.0964 37.5229 35.8995 36.4408 37.1568C35.4027 38.3631 33.7303 39.1191 31.9889 39.1191H21.8778C20.1365 39.1191 18.464 38.3631 17.4259 37.1568C16.3439 35.8995 15.9387 34.0964 16.9972 32.3636Z" fill="#FFFAFF"/>
</g>
<defs>
<clipPath id="clip0_2303_764">
<rect width="52" height="52" fill="white" transform="translate(0.5 0.046875)"/>
</clipPath>
<clipPath id="clip1_2303_764">
<rect width="52" height="52" fill="white" transform="translate(0.5 0.046875)"/>
</clipPath>
</defs>
</svg>
