<svg width="53" height="53" viewBox="0 0 53 53" fill="none" xmlns="http://www.w3.org/2000/svg">
<g clip-path="url(#clip0_2303_780)">
<path d="M36.9 0.03125H16.1C7.48436 0.03125 0.5 7.01561 0.5 15.6313V36.4313C0.5 45.0469 7.48436 52.0312 16.1 52.0312H36.9C45.5156 52.0312 52.5 45.0469 52.5 36.4313V15.6313C52.5 7.01561 45.5156 0.03125 36.9 0.03125Z" fill="#00F59B"/>
<path fill-rule="evenodd" clip-rule="evenodd" d="M14.2225 21.1203C14.2225 18.408 16.4214 16.2092 19.1337 16.2092H33.867C36.5793 16.2092 38.7781 18.408 38.7781 21.1203V30.9426C38.7781 33.6549 36.5793 35.8536 33.867 35.8536H19.1337C16.4214 35.8536 14.2225 33.6549 14.2225 30.9426V21.1203ZM19.1337 18.6648C17.7775 18.6648 16.6781 19.7641 16.6781 21.1203V30.9426C16.6781 32.2987 17.7775 33.3981 19.1337 33.3981H33.867C35.2232 33.3981 36.3225 32.2987 36.3225 30.9426V21.1203C36.3225 19.7641 35.2232 18.6648 33.867 18.6648H19.1337Z" fill="#151531"/>
<path fill-rule="evenodd" clip-rule="evenodd" d="M37.55 24.8034H15.45V22.3479H37.55V24.8034Z" fill="#151531"/>
<path fill-rule="evenodd" clip-rule="evenodd" d="M27.7275 29.7144C27.7275 29.0363 28.2771 28.4866 28.9552 28.4866H32.6385C33.3166 28.4866 33.8663 29.0363 33.8663 29.7144C33.8663 30.3925 33.3166 30.9422 32.6385 30.9422H28.9552C28.2771 30.9422 27.7275 30.3925 27.7275 29.7144Z" fill="#151531"/>
</g>
<g clip-path="url(#clip1_2303_780)">
<path d="M36.9 0.03125H16.1C7.48436 0.03125 0.5 7.01561 0.5 15.6313V36.4313C0.5 45.0469 7.48436 52.0312 16.1 52.0312H36.9C45.5156 52.0312 52.5 45.0469 52.5 36.4313V15.6313C52.5 7.01561 45.5156 0.03125 36.9 0.03125Z" fill="#9D0AFF"/>
<path fill-rule="evenodd" clip-rule="evenodd" d="M14.2225 21.1203C14.2225 18.408 16.4214 16.2092 19.1337 16.2092H33.867C36.5793 16.2092 38.7781 18.408 38.7781 21.1203V30.9426C38.7781 33.6549 36.5793 35.8536 33.867 35.8536H19.1337C16.4214 35.8536 14.2225 33.6549 14.2225 30.9426V21.1203ZM19.1337 18.6648C17.7775 18.6648 16.6781 19.7641 16.6781 21.1203V30.9426C16.6781 32.2987 17.7775 33.3981 19.1337 33.3981H33.867C35.2232 33.3981 36.3225 32.2987 36.3225 30.9426V21.1203C36.3225 19.7641 35.2232 18.6648 33.867 18.6648H19.1337Z" fill="#FFFAFF"/>
<path fill-rule="evenodd" clip-rule="evenodd" d="M37.55 24.8034H15.45V22.3479H37.55V24.8034Z" fill="#FFFAFF"/>
<path fill-rule="evenodd" clip-rule="evenodd" d="M27.7275 29.7144C27.7275 29.0363 28.2771 28.4866 28.9552 28.4866H32.6385C33.3166 28.4866 33.8663 29.0363 33.8663 29.7144C33.8663 30.3925 33.3166 30.9422 32.6385 30.9422H28.9552C28.2771 30.9422 27.7275 30.3925 27.7275 29.7144Z" fill="#FFFAFF"/>
</g>
<defs>
<clipPath id="clip0_2303_780">
<rect width="52" height="52" fill="white" transform="translate(0.5 0.03125)"/>
</clipPath>
<clipPath id="clip1_2303_780">
<rect width="52" height="52" fill="white" transform="translate(0.5 0.03125)"/>
</clipPath>
</defs>
</svg>
