<svg width="53" height="53" viewBox="0 0 53 53" fill="none" xmlns="http://www.w3.org/2000/svg">
<g clip-path="url(#clip0_2303_798)">
<path d="M36.9 0.015625H16.1C7.48436 0.015625 0.5 6.99998 0.5 15.6156V36.4156C0.5 45.0313 7.48436 52.0156 16.1 52.0156H36.9C45.5156 52.0156 52.5 45.0313 52.5 36.4156V15.6156C52.5 6.99998 45.5156 0.015625 36.9 0.015625Z" fill="#00F59B"/>
<path fill-rule="evenodd" clip-rule="evenodd" d="M14.2222 18.649C14.2222 15.9366 16.4209 13.7379 19.1332 13.7379H20.361C23.0733 13.7379 25.2722 15.9366 25.2722 18.649V19.8768C25.2722 22.5891 23.0733 24.7879 20.361 24.7879H19.1332C16.4209 24.7879 14.2222 22.5891 14.2222 19.8768V18.649ZM19.1332 16.1934C17.7771 16.1934 16.6777 17.2928 16.6777 18.649V19.8768C16.6777 21.2329 17.7771 22.3323 19.1332 22.3323H20.361C21.7172 22.3323 22.8166 21.2329 22.8166 19.8768V18.649C22.8166 17.2928 21.7172 16.1934 20.361 16.1934H19.1332ZM27.7277 18.649C27.7277 15.9366 29.9264 13.7379 32.6388 13.7379H33.8666C36.5789 13.7379 38.7777 15.9366 38.7777 18.649V19.8768C38.7777 22.5891 36.5789 24.7879 33.8666 24.7879H32.6388C29.9264 24.7879 27.7277 22.5891 27.7277 19.8768V18.649ZM32.6388 16.1934C31.2826 16.1934 30.1832 17.2928 30.1832 18.649V19.8768C30.1832 21.2329 31.2826 22.3323 32.6388 22.3323H33.8666C35.2227 22.3323 36.3222 21.2329 36.3222 19.8768V18.649C36.3222 17.2928 35.2227 16.1934 33.8666 16.1934H32.6388ZM14.2222 32.1546C14.2222 29.4423 16.4209 27.2434 19.1332 27.2434H20.361C23.0733 27.2434 25.2722 29.4423 25.2722 32.1546V33.3823C25.2722 36.0947 23.0733 38.2934 20.361 38.2934H19.1332C16.4209 38.2934 14.2222 36.0947 14.2222 33.3823V32.1546ZM19.1332 29.699C17.7771 29.699 16.6777 30.7984 16.6777 32.1546V33.3823C16.6777 34.7385 17.7771 35.8379 19.1332 35.8379H20.361C21.7172 35.8379 22.8166 34.7385 22.8166 33.3823V32.1546C22.8166 30.7984 21.7172 29.699 20.361 29.699H19.1332ZM27.7277 32.1546C27.7277 29.4423 29.9264 27.2434 32.6388 27.2434H33.8666C36.5789 27.2434 38.7777 29.4423 38.7777 32.1546V33.3823C38.7777 36.0947 36.5789 38.2934 33.8666 38.2934H32.6388C29.9264 38.2934 27.7277 36.0947 27.7277 33.3823V32.1546ZM32.6388 29.699C31.2826 29.699 30.1832 30.7984 30.1832 32.1546V33.3823C30.1832 34.7385 31.2826 35.8379 32.6388 35.8379H33.8666C35.2227 35.8379 36.3222 34.7385 36.3222 33.3823V32.1546C36.3222 30.7984 35.2227 29.699 33.8666 29.699H32.6388Z" fill="#151531"/>
</g>
<g clip-path="url(#clip1_2303_798)">
<path d="M36.9 0.015625H16.1C7.48436 0.015625 0.5 6.99998 0.5 15.6156V36.4156C0.5 45.0313 7.48436 52.0156 16.1 52.0156H36.9C45.5156 52.0156 52.5 45.0313 52.5 36.4156V15.6156C52.5 6.99998 45.5156 0.015625 36.9 0.015625Z" fill="#9D0AFF"/>
<path fill-rule="evenodd" clip-rule="evenodd" d="M14.2222 18.649C14.2222 15.9366 16.4209 13.7379 19.1332 13.7379H20.361C23.0733 13.7379 25.2722 15.9366 25.2722 18.649V19.8768C25.2722 22.5891 23.0733 24.7879 20.361 24.7879H19.1332C16.4209 24.7879 14.2222 22.5891 14.2222 19.8768V18.649ZM19.1332 16.1934C17.7771 16.1934 16.6777 17.2928 16.6777 18.649V19.8768C16.6777 21.2329 17.7771 22.3323 19.1332 22.3323H20.361C21.7172 22.3323 22.8166 21.2329 22.8166 19.8768V18.649C22.8166 17.2928 21.7172 16.1934 20.361 16.1934H19.1332ZM27.7277 18.649C27.7277 15.9366 29.9264 13.7379 32.6388 13.7379H33.8666C36.5789 13.7379 38.7777 15.9366 38.7777 18.649V19.8768C38.7777 22.5891 36.5789 24.7879 33.8666 24.7879H32.6388C29.9264 24.7879 27.7277 22.5891 27.7277 19.8768V18.649ZM32.6388 16.1934C31.2826 16.1934 30.1832 17.2928 30.1832 18.649V19.8768C30.1832 21.2329 31.2826 22.3323 32.6388 22.3323H33.8666C35.2227 22.3323 36.3222 21.2329 36.3222 19.8768V18.649C36.3222 17.2928 35.2227 16.1934 33.8666 16.1934H32.6388ZM14.2222 32.1546C14.2222 29.4423 16.4209 27.2434 19.1332 27.2434H20.361C23.0733 27.2434 25.2722 29.4423 25.2722 32.1546V33.3823C25.2722 36.0947 23.0733 38.2934 20.361 38.2934H19.1332C16.4209 38.2934 14.2222 36.0947 14.2222 33.3823V32.1546ZM19.1332 29.699C17.7771 29.699 16.6777 30.7984 16.6777 32.1546V33.3823C16.6777 34.7385 17.7771 35.8379 19.1332 35.8379H20.361C21.7172 35.8379 22.8166 34.7385 22.8166 33.3823V32.1546C22.8166 30.7984 21.7172 29.699 20.361 29.699H19.1332ZM27.7277 32.1546C27.7277 29.4423 29.9264 27.2434 32.6388 27.2434H33.8666C36.5789 27.2434 38.7777 29.4423 38.7777 32.1546V33.3823C38.7777 36.0947 36.5789 38.2934 33.8666 38.2934H32.6388C29.9264 38.2934 27.7277 36.0947 27.7277 33.3823V32.1546ZM32.6388 29.699C31.2826 29.699 30.1832 30.7984 30.1832 32.1546V33.3823C30.1832 34.7385 31.2826 35.8379 32.6388 35.8379H33.8666C35.2227 35.8379 36.3222 34.7385 36.3222 33.3823V32.1546C36.3222 30.7984 35.2227 29.699 33.8666 29.699H32.6388Z" fill="#FFFAFF"/>
</g>
<defs>
<clipPath id="clip0_2303_798">
<rect width="52" height="52" fill="white" transform="translate(0.5 0.015625)"/>
</clipPath>
<clipPath id="clip1_2303_798">
<rect width="52" height="52" fill="white" transform="translate(0.5 0.015625)"/>
</clipPath>
</defs>
</svg>
