<svg width="53" height="52" viewBox="0 0 53 52" fill="none" xmlns="http://www.w3.org/2000/svg">
<g clip-path="url(#clip0_2303_812)">
<path d="M36.9 0H16.1C7.48436 0 0.5 6.98436 0.5 15.6V36.4C0.5 45.0156 7.48436 52 16.1 52H36.9C45.5156 52 52.5 45.0156 52.5 36.4V15.6C52.5 6.98436 45.5156 0 36.9 0Z" fill="#00F59B"/>
<path fill-rule="evenodd" clip-rule="evenodd" d="M22.512 17.7734C21.6605 18.7442 21.1796 20.1517 21.1796 21.8256V23.9537C21.1796 25.0103 20.7042 25.888 20.2 26.5568C19.7391 27.1685 19.165 27.7177 18.7141 28.1489C18.6763 28.1851 18.6393 28.2205 18.6033 28.2551C18.1816 28.6596 17.9055 29.209 17.9055 29.8471C17.9055 30.4919 18.3889 30.9111 18.8605 30.9111H34.1395C34.6111 30.9111 35.0945 30.4919 35.0945 29.8471C35.0945 29.209 34.8185 28.6596 34.3967 28.2551C34.3607 28.2205 34.3238 28.1851 34.2859 28.1489C33.835 27.7177 33.261 27.1685 32.8 26.5568C32.2958 25.888 31.8204 25.0103 31.8204 23.9537V21.8256C31.8204 20.1517 31.3396 18.7443 30.4881 17.7734C29.6569 16.8259 28.3724 16.1778 26.5 16.1778C24.6276 16.1778 23.3431 16.8259 22.512 17.7734ZM20.6659 16.1542C22.0174 14.6134 24.007 13.7223 26.5 13.7223C28.993 13.7223 30.9826 14.6134 32.3342 16.1542C33.6654 17.6719 34.2759 19.7022 34.2759 21.8256V23.9537C34.2759 24.2533 34.4104 24.6138 34.7609 25.0789C35.0969 25.5247 35.5331 25.9429 36.015 26.4047C36.0421 26.4307 36.0693 26.4568 36.0967 26.4831C36.9362 27.2885 37.55 28.4552 37.55 29.8471C37.55 31.7338 36.0788 33.3667 34.1395 33.3667H18.8605C16.9212 33.3667 15.45 31.7338 15.45 29.8471C15.45 28.4552 16.0639 27.2885 16.9033 26.4831C16.9307 26.4568 16.9579 26.4307 16.985 26.4047C17.4669 25.9429 17.9031 25.5247 18.2391 25.0789C18.5896 24.6138 18.7241 24.2533 18.7241 23.9537V21.8256C18.7241 19.7022 19.3347 17.6719 20.6659 16.1542Z" fill="#151531"/>
<path fill-rule="evenodd" clip-rule="evenodd" d="M23.3608 34.8025C23.9239 34.4249 24.6866 34.5753 25.0643 35.1384C25.1863 35.3203 25.3759 35.492 25.6308 35.619C25.886 35.7461 26.1864 35.8179 26.5001 35.8179C26.8139 35.8179 27.1143 35.7461 27.3695 35.619C27.6244 35.492 27.814 35.3203 27.936 35.1384C28.3137 34.5753 29.0764 34.4249 29.6395 34.8025C30.2027 35.1802 30.353 35.9429 29.9754 36.5061C29.5984 37.0683 29.0716 37.5145 28.4646 37.8169C27.8578 38.1192 27.181 38.2734 26.5001 38.2734C25.8193 38.2734 25.1425 38.1192 24.5357 37.8169C23.9287 37.5145 23.4019 37.0683 23.0249 36.5061C22.6473 35.9429 22.7976 35.1802 23.3608 34.8025Z" fill="#151531"/>
</g>
<g clip-path="url(#clip1_2303_812)">
<path d="M36.9 0H16.1C7.48436 0 0.5 6.98436 0.5 15.6V36.4C0.5 45.0156 7.48436 52 16.1 52H36.9C45.5156 52 52.5 45.0156 52.5 36.4V15.6C52.5 6.98436 45.5156 0 36.9 0Z" fill="#9D0AFF"/>
<path fill-rule="evenodd" clip-rule="evenodd" d="M22.512 17.7734C21.6605 18.7442 21.1796 20.1517 21.1796 21.8256V23.9537C21.1796 25.0103 20.7042 25.888 20.2 26.5568C19.7391 27.1685 19.165 27.7177 18.7141 28.1489C18.6763 28.1851 18.6393 28.2205 18.6033 28.2551C18.1816 28.6596 17.9055 29.209 17.9055 29.8471C17.9055 30.4919 18.3889 30.9111 18.8605 30.9111H34.1395C34.6111 30.9111 35.0945 30.4919 35.0945 29.8471C35.0945 29.209 34.8185 28.6596 34.3967 28.2551C34.3607 28.2205 34.3238 28.1851 34.2859 28.1489C33.835 27.7177 33.261 27.1685 32.8 26.5568C32.2958 25.888 31.8204 25.0103 31.8204 23.9537V21.8256C31.8204 20.1517 31.3396 18.7443 30.4881 17.7734C29.6569 16.8259 28.3724 16.1778 26.5 16.1778C24.6276 16.1778 23.3431 16.8259 22.512 17.7734ZM20.6659 16.1542C22.0174 14.6134 24.007 13.7223 26.5 13.7223C28.993 13.7223 30.9826 14.6134 32.3342 16.1542C33.6654 17.6719 34.2759 19.7022 34.2759 21.8256V23.9537C34.2759 24.2533 34.4104 24.6138 34.7609 25.0789C35.0969 25.5247 35.5331 25.9429 36.015 26.4047C36.0421 26.4307 36.0693 26.4568 36.0967 26.4831C36.9362 27.2885 37.55 28.4552 37.55 29.8471C37.55 31.7338 36.0788 33.3667 34.1395 33.3667H18.8605C16.9212 33.3667 15.45 31.7338 15.45 29.8471C15.45 28.4552 16.0639 27.2885 16.9033 26.4831C16.9307 26.4568 16.9579 26.4307 16.985 26.4047C17.4669 25.9429 17.9031 25.5247 18.2391 25.0789C18.5896 24.6138 18.7241 24.2533 18.7241 23.9537V21.8256C18.7241 19.7022 19.3347 17.6719 20.6659 16.1542Z" fill="#FFFAFF"/>
<path fill-rule="evenodd" clip-rule="evenodd" d="M23.3608 34.8025C23.9239 34.4249 24.6866 34.5753 25.0643 35.1384C25.1863 35.3203 25.3759 35.492 25.6308 35.619C25.886 35.7461 26.1864 35.8179 26.5001 35.8179C26.8139 35.8179 27.1143 35.7461 27.3695 35.619C27.6244 35.492 27.814 35.3203 27.936 35.1384C28.3137 34.5753 29.0764 34.4249 29.6395 34.8025C30.2027 35.1802 30.353 35.9429 29.9754 36.5061C29.5984 37.0683 29.0716 37.5145 28.4646 37.8169C27.8578 38.1192 27.181 38.2734 26.5001 38.2734C25.8193 38.2734 25.1425 38.1192 24.5357 37.8169C23.9287 37.5145 23.4019 37.0683 23.0249 36.5061C22.6473 35.9429 22.7976 35.1802 23.3608 34.8025Z" fill="#FFFAFF"/>
</g>
<defs>
<clipPath id="clip0_2303_812">
<rect width="52" height="52" fill="white" transform="translate(0.5)"/>
</clipPath>
<clipPath id="clip1_2303_812">
<rect width="52" height="52" fill="white" transform="translate(0.5)"/>
</clipPath>
</defs>
</svg>
