<svg width="57" height="57" viewBox="0 0 57 57" fill="none" xmlns="http://www.w3.org/2000/svg">
<g clip-path="url(#clip0_2316_202)">
<path d="M39.5281 0.171875H17.1281C7.84974 0.171875 0.328125 7.69349 0.328125 16.9719V39.3719C0.328125 48.6503 7.84974 56.1719 17.1281 56.1719H39.5281C48.8065 56.1719 56.3281 48.6503 56.3281 39.3719V16.9719C56.3281 7.69349 48.8065 0.171875 39.5281 0.171875Z" fill="#00F59B"/>
<path fill-rule="evenodd" clip-rule="evenodd" d="M15.1058 22.8831C15.1058 19.2319 18.0657 16.272 21.7169 16.272H34.9392C38.5904 16.272 41.5502 19.2319 41.5502 22.8831V34.7831C41.5502 38.4343 38.5904 41.3942 34.9392 41.3942H21.7169C18.0657 41.3942 15.1058 38.4343 15.1058 34.7831V22.8831ZM21.7169 18.9164C19.5262 18.9164 17.7502 20.6923 17.7502 22.8831V34.7831C17.7502 36.9738 19.5262 38.7497 21.7169 38.7497H34.9392C37.1299 38.7497 38.9058 36.9738 38.9058 34.7831V22.8831C38.9058 20.6923 37.1299 18.9164 34.9392 18.9164H21.7169Z" fill="#151531"/>
<path fill-rule="evenodd" clip-rule="evenodd" d="M23.0393 14.9497C23.7695 14.9497 24.3615 15.5416 24.3615 16.2719V20.2385C24.3615 20.9688 23.7695 21.5608 23.0393 21.5608C22.3091 21.5608 21.717 20.9688 21.717 20.2385V16.2719C21.717 15.5416 22.3091 14.9497 23.0393 14.9497Z" fill="#151531"/>
<path fill-rule="evenodd" clip-rule="evenodd" d="M20.3948 25.5276C20.3948 24.7973 20.9868 24.2053 21.717 24.2053H34.9392C35.6694 24.2053 36.2614 24.7973 36.2614 25.5276C36.2614 26.2578 35.6694 26.8497 34.9392 26.8497H21.717C20.9868 26.8497 20.3948 26.2578 20.3948 25.5276Z" fill="#151531"/>
<path fill-rule="evenodd" clip-rule="evenodd" d="M32.2948 34.7829C32.2948 34.0527 32.8868 33.4607 33.6171 33.4607H34.9392C35.6695 33.4607 36.2615 34.0527 36.2615 34.7829C36.2615 35.5132 35.6695 36.1052 34.9392 36.1052H33.6171C32.8868 36.1052 32.2948 35.5132 32.2948 34.7829Z" fill="#151531"/>
<path fill-rule="evenodd" clip-rule="evenodd" d="M33.6171 14.9497C34.3473 14.9497 34.9392 15.5416 34.9392 16.2719V20.2385C34.9392 20.9688 34.3473 21.5608 33.6171 21.5608C32.8868 21.5608 32.2948 20.9688 32.2948 20.2385V16.2719C32.2948 15.5416 32.8868 14.9497 33.6171 14.9497Z" fill="#151531"/>
</g>
<g clip-path="url(#clip1_2316_202)">
<path d="M39.5281 0.171875H17.1281C7.84974 0.171875 0.328125 7.69349 0.328125 16.9719V39.3719C0.328125 48.6503 7.84974 56.1719 17.1281 56.1719H39.5281C48.8065 56.1719 56.3281 48.6503 56.3281 39.3719V16.9719C56.3281 7.69349 48.8065 0.171875 39.5281 0.171875Z" fill="#9D0AFF"/>
<path fill-rule="evenodd" clip-rule="evenodd" d="M15.1058 22.8831C15.1058 19.2319 18.0657 16.272 21.7169 16.272H34.9392C38.5904 16.272 41.5502 19.2319 41.5502 22.8831V34.7831C41.5502 38.4343 38.5904 41.3942 34.9392 41.3942H21.7169C18.0657 41.3942 15.1058 38.4343 15.1058 34.7831V22.8831ZM21.7169 18.9164C19.5262 18.9164 17.7502 20.6923 17.7502 22.8831V34.7831C17.7502 36.9738 19.5262 38.7497 21.7169 38.7497H34.9392C37.1299 38.7497 38.9058 36.9738 38.9058 34.7831V22.8831C38.9058 20.6923 37.1299 18.9164 34.9392 18.9164H21.7169Z" fill="#FFFAFF"/>
<path fill-rule="evenodd" clip-rule="evenodd" d="M23.0393 14.9497C23.7695 14.9497 24.3615 15.5416 24.3615 16.2719V20.2385C24.3615 20.9688 23.7695 21.5608 23.0393 21.5608C22.3091 21.5608 21.717 20.9688 21.717 20.2385V16.2719C21.717 15.5416 22.3091 14.9497 23.0393 14.9497Z" fill="#FFFAFF"/>
<path fill-rule="evenodd" clip-rule="evenodd" d="M20.3948 25.5276C20.3948 24.7973 20.9868 24.2053 21.717 24.2053H34.9392C35.6694 24.2053 36.2614 24.7973 36.2614 25.5276C36.2614 26.2578 35.6694 26.8497 34.9392 26.8497H21.717C20.9868 26.8497 20.3948 26.2578 20.3948 25.5276Z" fill="#FFFAFF"/>
<path fill-rule="evenodd" clip-rule="evenodd" d="M32.2948 34.7829C32.2948 34.0527 32.8868 33.4607 33.6171 33.4607H34.9392C35.6695 33.4607 36.2615 34.0527 36.2615 34.7829C36.2615 35.5132 35.6695 36.1052 34.9392 36.1052H33.6171C32.8868 36.1052 32.2948 35.5132 32.2948 34.7829Z" fill="#FFFAFF"/>
<path fill-rule="evenodd" clip-rule="evenodd" d="M33.6171 14.9497C34.3473 14.9497 34.9392 15.5416 34.9392 16.2719V20.2385C34.9392 20.9688 34.3473 21.5608 33.6171 21.5608C32.8868 21.5608 32.2948 20.9688 32.2948 20.2385V16.2719C32.2948 15.5416 32.8868 14.9497 33.6171 14.9497Z" fill="#FFFAFF"/>
</g>
<defs>
<clipPath id="clip0_2316_202">
<rect width="56" height="56" fill="white" transform="translate(0.328125 0.171875)"/>
</clipPath>
<clipPath id="clip1_2316_202">
<rect width="56" height="56" fill="white" transform="translate(0.328125 0.171875)"/>
</clipPath>
</defs>
</svg>
