<svg width="18" height="18" viewBox="0 0 18 18" fill="none" xmlns="http://www.w3.org/2000/svg">
<g clip-path="url(#clip0_2303_1073)">
<path d="M2.63718 2.89062H0.03125V0.890625H4.42532L4.87413 4.89062H16.0312V10.8291L3.80066 13.2601L2.63718 2.89062ZM15.5312 17.8906C14.7028 17.8906 14.0312 17.2191 14.0312 16.3906C14.0312 15.5622 14.7028 14.8906 15.5312 14.8906C16.3597 14.8906 17.0312 15.5622 17.0312 16.3906C17.0312 17.2191 16.3597 17.8906 15.5312 17.8906ZM5.53125 17.8906C4.70282 17.8906 4.03125 17.2191 4.03125 16.3906C4.03125 15.5622 4.70282 14.8906 5.53125 14.8906C6.35968 14.8906 7.03125 15.5622 7.03125 16.3906C7.03125 17.2191 6.35968 17.8906 5.53125 17.8906Z" fill="#9D0AFF"/>
</g>
<defs>
<clipPath id="clip0_2303_1073">
<rect width="17" height="17" fill="white" transform="translate(0.03125 0.890625)"/>
</clipPath>
</defs>
</svg>
